<svg width="85" height="85" viewBox="0 0 85 85" fill="none" xmlns="http://www.w3.org/2000/svg">
<rect width="84.7201" height="84.7201" rx="12" fill="#E54B2A"/>
<rect x="2.62018" y="1.74683" width="80.3531" height="80.3531" rx="12" fill="white"/>
<path d="M64.6667 25.4H47.3333L43 21H30C28.8507 21 27.7485 21.4636 26.9359 22.2887C26.1232 23.1139 25.6667 24.233 25.6667 25.4V51.8C25.6667 52.967 26.1232 54.0861 26.9359 54.9113C27.7485 55.7364 28.8507 56.2 30 56.2H64.6667C65.8159 56.2 66.9181 55.7364 67.7308 54.9113C68.5435 54.0861 69 52.967 69 51.8V29.8C69 28.633 68.5435 27.5139 67.7308 26.6887C66.9181 25.8636 65.8159 25.4 64.6667 25.4ZM21.3333 29.8H17V60.6C17 61.767 17.4565 62.8861 18.2692 63.7113C19.0819 64.5364 20.1841 65 21.3333 65H60.3333V60.6H21.3333V29.8Z" fill="#E54B2A"/>
</svg>
