<svg width="79" height="79" viewBox="0 0 79 79" fill="none" xmlns="http://www.w3.org/2000/svg">
<rect width="79" height="79" rx="12" fill="white"/>
<rect x="2.44336" y="1.62866" width="74.9278" height="74.9278" rx="12" fill="#E54B2A"/>
<path d="M57.5 25.6H43.5L40 22H29.5C28.5717 22 27.6815 22.3793 27.0251 23.0544C26.3687 23.7295 26 24.6452 26 25.6V47.2C26 48.1548 26.3687 49.0705 27.0251 49.7456C27.6815 50.4207 28.5717 50.8 29.5 50.8H57.5C58.4283 50.8 59.3185 50.4207 59.9749 49.7456C60.6313 49.0705 61 48.1548 61 47.2V29.2C61 28.2452 60.6313 27.3295 59.9749 26.6544C59.3185 25.9793 58.4283 25.6 57.5 25.6ZM22.5 29.2H19V54.4C19 55.3548 19.3687 56.2704 20.0251 56.9456C20.6815 57.6207 21.5717 58 22.5 58H54V54.4H22.5V29.2Z" fill="white"/>
</svg>
