<svg width="174" height="174" viewBox="0 0 174 174" fill="none" xmlns="http://www.w3.org/2000/svg">
<circle cx="87" cy="87" r="87" fill="#E54B2A"/>
<path d="M104.705 63.4846C96.8282 63.4846 93.4994 67.2432 88.0139 67.2432C82.3896 67.2432 78.0997 63.512 71.274 63.512C64.5929 63.512 57.4684 67.591 52.944 74.5397C46.5911 84.3386 47.6694 102.794 57.9587 118.516C61.6392 124.144 66.5543 130.456 73.0009 130.524H73.1182C78.7209 130.524 80.3853 126.855 88.0959 126.812H88.2131C95.8085 126.812 97.3323 130.503 102.912 130.503H103.029C109.475 130.434 114.654 123.441 118.335 117.834C120.984 113.802 121.968 111.778 124 107.217C109.116 101.567 106.725 80.4667 121.445 72.3771C116.952 66.7509 110.638 63.4924 104.685 63.4924L104.705 63.4846Z" fill="white"/>
<path d="M102.97 43C98.2817 43.3184 92.8118 46.3034 89.608 50.2007C86.7011 53.7327 84.31 58.9721 85.2477 64.0533H85.6227C90.616 64.0533 95.7264 61.0468 98.7114 57.1944C101.587 53.5276 103.767 48.3312 102.97 43Z" fill="white"/>
</svg>
