<svg width="174" height="174" viewBox="0 0 174 174" fill="none" xmlns="http://www.w3.org/2000/svg">
<circle cx="87" cy="87" r="87" fill="#E54B2A"/>
<path d="M116.682 105.482C117.628 105.897 118.338 106.46 118.811 107.171C119.284 107.883 119.624 108.742 119.831 109.75C119.949 110.343 120.082 110.891 120.23 111.395C120.378 111.899 120.555 112.373 120.762 112.817C120.969 113.262 121.206 113.692 121.472 114.106C121.738 114.521 122.093 114.981 122.536 115.485C122.921 115.9 123.261 116.433 123.556 117.085C123.852 117.737 124 118.359 124 118.952C124 119.634 123.823 120.212 123.468 120.686C123.113 121.16 122.669 121.575 122.137 121.931C121.457 122.405 120.747 122.82 120.008 123.175C119.269 123.531 118.53 123.901 117.791 124.287C116.578 124.879 115.529 125.502 114.642 126.154C113.755 126.806 112.868 127.636 111.98 128.643C111.507 129.177 110.975 129.695 110.384 130.199C109.792 130.703 109.142 131.177 108.432 131.622C107.723 132.066 106.998 132.392 106.259 132.6C105.52 132.807 104.781 132.941 104.041 133C102.326 133 100.907 132.704 99.7836 132.111C98.66 131.518 97.6842 130.436 96.8563 128.866C96.6198 128.421 96.3832 128.14 96.1467 128.021C95.9101 127.902 95.5257 127.799 94.9935 127.71C93.4855 127.591 91.9923 127.473 90.5139 127.354C89.0355 127.236 87.5275 127.176 85.9899 127.176C84.7481 127.176 83.4766 127.28 82.1756 127.488C80.8746 127.695 79.5884 127.947 78.317 128.243C78.0509 128.303 77.7847 128.525 77.5186 128.91C77.2525 129.295 76.8829 129.725 76.4098 130.199C75.9367 130.674 75.301 131.088 74.5027 131.444C73.7043 131.8 72.6546 131.992 71.3536 132.022C70.3779 132.022 69.3282 131.918 68.2046 131.711C67.081 131.503 66.0757 131.163 65.1886 130.688C63.3554 129.77 61.5517 129.147 59.7776 128.821C58.0035 128.495 56.126 128.199 54.1449 127.932C53.4648 127.843 52.8143 127.725 52.1934 127.576C51.5724 127.428 51.0254 127.176 50.5523 126.821C50.0792 126.465 49.7096 126.05 49.4435 125.576C49.1774 125.102 49.0296 124.435 49 123.575C49 122.657 49.1183 121.768 49.3548 120.908C49.5914 120.049 49.7244 119.145 49.754 118.196C49.754 117.544 49.7096 116.907 49.6209 116.285C49.5322 115.662 49.4731 114.996 49.4435 114.284C49.4435 112.773 49.7983 111.661 50.508 110.95C51.2176 110.239 52.2525 109.676 53.6127 109.261C54.2632 109.053 54.825 108.772 55.298 108.416C55.7711 108.061 56.2147 107.675 56.6286 107.26C57.0426 106.845 57.427 106.386 57.7818 105.882C58.1366 105.378 58.5358 104.875 58.9793 104.371C59.068 104.252 59.1124 104.119 59.1124 103.971C59.1124 103.615 59.0976 103.274 59.068 102.948C59.0384 102.622 59.0089 102.267 58.9793 101.881C58.9793 99.866 59.2898 97.8359 59.9107 95.7909C60.5316 93.746 61.3448 91.7455 62.3501 89.7894C63.3554 87.8334 64.479 85.9515 65.7209 84.1436C66.9627 82.3358 68.1898 80.6613 69.4021 79.1202C71.1171 76.927 72.4033 74.645 73.2608 72.2741C74.1183 69.9031 74.5618 67.3247 74.5914 64.5388C74.5914 63.3534 74.5322 62.1827 74.414 61.0269C74.2957 59.871 74.2365 58.6856 74.2365 57.4704C74.2365 55.0995 74.5027 52.9656 75.0349 51.0689C75.5671 49.1721 76.395 47.5421 77.5186 46.1788C78.6422 44.8155 80.1059 43.793 81.9095 43.1114C83.7132 42.4297 85.8717 42.0593 88.385 42C91.3714 42 93.7516 42.5927 95.5257 43.7782C97.2998 44.9637 98.66 46.5196 99.6061 48.446C100.552 50.3724 101.158 52.5211 101.425 54.892C101.691 57.263 101.839 59.6636 101.868 62.0938V62.8495C101.868 64.0646 101.883 65.1464 101.912 66.0948C101.942 67.0432 102.06 67.9767 102.267 68.8955C102.474 69.8142 102.785 70.7329 103.199 71.6517C103.613 72.5704 104.234 73.5633 105.062 74.6302C106.481 76.4973 107.93 78.3793 109.408 80.276C110.886 82.1728 112.232 84.1288 113.444 86.1441C114.656 88.1594 115.647 90.2636 116.416 92.4568C117.185 94.6499 117.584 97.0208 117.613 99.5696C117.613 101.615 117.303 103.585 116.682 105.482ZM79.4701 59.1597C79.8841 59.1597 80.2241 59.2635 80.4902 59.4709C80.7564 59.6784 80.9633 59.9599 81.1112 60.3156C81.259 60.6712 81.3625 61.0269 81.4216 61.3825C81.4808 61.7382 81.5103 62.1086 81.5103 62.4939C81.5103 62.7903 81.466 63.0274 81.3773 63.2052C81.2886 63.383 81.1555 63.546 80.9781 63.6942C80.8007 63.8424 80.6233 63.9906 80.4459 64.1387C80.2685 64.2869 80.0911 64.4647 79.9137 64.6722C79.7067 64.9982 79.4258 65.2649 79.071 65.4724C78.7161 65.6799 78.3761 65.9021 78.0509 66.1392C77.7256 66.3763 77.4299 66.6282 77.1638 66.895C76.8977 67.1617 76.7646 67.5322 76.7646 68.0064C76.7646 68.2731 76.8977 68.4954 77.1638 68.6732C77.8734 69.1474 78.3761 69.7253 78.6718 70.4069C78.9675 71.0886 79.2927 71.7554 79.6475 72.4074C80.0024 73.0594 80.4607 73.6077 81.0225 74.0523C81.5843 74.4968 82.4565 74.7191 83.6393 74.7191H83.9054C85.0881 74.6598 86.2117 74.3486 87.2762 73.7855C88.3406 73.2224 89.4051 72.6297 90.4695 72.0073C90.6174 71.9184 90.8096 71.8295 91.0461 71.7406C91.2827 71.6517 91.4749 71.548 91.6227 71.4294L94.8604 68.8955C94.9196 68.688 94.9639 68.4954 94.9935 68.3175C95.0231 68.1397 95.0526 67.9323 95.0822 67.6952C95.0822 67.3692 95.0083 67.1024 94.8604 66.895C94.7126 66.6875 94.5352 66.5097 94.3282 66.3615C94.1212 66.2133 93.8699 66.1096 93.5742 66.0503C93.2785 65.991 93.0124 65.917 92.7759 65.828C92.0662 65.6799 91.4009 65.4131 90.78 65.0278C90.1591 64.6426 89.5086 64.3462 88.8285 64.1387C88.7102 64.1091 88.6215 64.0202 88.5624 63.872C88.5033 63.7238 88.4441 63.546 88.385 63.3385C88.3258 63.1311 88.3111 62.9384 88.3406 62.7606C88.3702 62.5828 88.3554 62.4346 88.2963 62.3161C88.2963 61.9604 88.3258 61.59 88.385 61.2047C88.4441 60.8194 88.5772 60.4489 88.7842 60.0933C88.9911 59.7377 89.2277 59.4709 89.4938 59.2931C89.7599 59.1153 90.1443 59.0116 90.647 58.9819C91.5636 58.9819 92.2289 59.3227 92.6428 60.0044C93.0568 60.686 93.2785 61.427 93.3081 62.2272C93.3081 62.6124 93.2342 62.9533 93.0863 63.2496C92.9385 63.546 92.8646 63.872 92.8646 64.2277C92.8646 64.4647 92.9385 64.6277 93.0863 64.7167C93.2342 64.8056 93.4264 64.8648 93.6629 64.8945C94.343 64.8945 94.7865 64.7315 94.9935 64.4055C95.2005 64.0795 95.3187 63.5905 95.3483 62.9384C95.3483 62.2568 95.2892 61.5011 95.1709 60.6712C95.0526 59.8414 94.8161 59.0708 94.4613 58.3596C94.1064 57.6483 93.6481 57.0555 93.0863 56.5813C92.5245 56.1071 91.8001 55.8701 90.9131 55.8701C89.3755 55.8701 88.2667 56.2553 87.5866 57.0259C86.9066 57.7965 86.5517 58.9523 86.5222 60.4934C86.5222 60.938 86.5517 61.3825 86.6109 61.8271C86.67 62.2716 86.6996 62.7162 86.6996 63.1607C86.6996 63.3089 86.6848 63.383 86.6552 63.383C86.6257 63.383 86.537 63.3534 86.3891 63.2941C86.2413 63.2348 86.0639 63.1607 85.8569 63.0718C85.6499 62.9829 85.4281 62.9088 85.1916 62.8495C84.9551 62.7903 84.7185 62.7606 84.482 62.7606C84.4228 62.7606 84.275 62.7754 84.0384 62.8051C83.8019 62.8347 83.5653 62.8495 83.3288 62.8495C82.9148 62.8495 82.7079 62.7754 82.7079 62.6273C82.7079 62.1827 82.6783 61.6196 82.6192 60.938C82.56 60.2563 82.4122 59.5747 82.1756 58.893C81.9391 58.2114 81.6434 57.6483 81.2886 57.2037C80.9338 56.7592 80.4015 56.5221 79.6919 56.4924C79.1892 56.4924 78.7605 56.6554 78.4057 56.9814C78.0509 57.3074 77.7404 57.6927 77.4743 58.1373C77.2082 58.5818 77.0455 59.0857 76.9864 59.6488C76.9273 60.2119 76.8681 60.686 76.809 61.0713C76.809 61.2491 76.8386 61.5603 76.8977 62.0049C76.9568 62.4494 77.0603 62.9088 77.2082 63.383C77.356 63.8572 77.5186 64.2721 77.696 64.6277C77.8734 64.9834 78.0804 65.1612 78.317 65.1612C78.4648 65.1612 78.657 65.0575 78.8936 64.85C79.1301 64.6426 79.2484 64.4499 79.2484 64.2721C79.2484 64.1832 79.204 64.1239 79.1153 64.0943C79.0266 64.0646 78.9379 64.0498 78.8492 64.0498C78.6422 64.0498 78.4648 63.9461 78.317 63.7386C78.1691 63.5312 78.0509 63.2941 77.9622 63.0274C77.8734 62.7606 77.7847 62.4791 77.696 62.1827C77.6073 61.8863 77.5778 61.6641 77.6073 61.5159C77.6073 60.9231 77.7404 60.3897 78.0065 59.9155C78.2726 59.4413 78.7605 59.1894 79.4701 59.1597ZM69.8013 128.377C70.5109 128.377 71.2058 128.317 71.8859 128.199C72.5659 128.08 73.2017 127.843 73.793 127.488C74.3844 127.132 74.8279 126.673 75.1236 126.109C75.4193 125.546 75.5967 124.835 75.6558 123.976C75.6558 123.442 75.5671 122.923 75.3897 122.42C75.2123 121.916 74.961 121.442 74.6357 120.997C74.2809 120.434 73.8965 119.901 73.4826 119.397C73.0686 118.893 72.6842 118.359 72.3294 117.796C71.7676 116.966 71.2206 116.151 70.6883 115.351C70.1561 114.551 69.6239 113.706 69.0917 112.817C68.6186 112.047 68.175 111.276 67.7611 110.506C67.3471 109.735 66.8445 108.979 66.2531 108.238C65.8983 107.794 65.4843 107.394 65.0112 107.038C64.5381 106.682 63.9911 106.505 63.3702 106.505C62.7197 106.505 62.1579 106.712 61.6848 107.127C61.2117 107.542 60.7238 108.046 60.2212 108.638C59.7185 109.231 59.1567 109.809 58.5358 110.372C57.9148 110.935 57.1165 111.38 56.1407 111.706C55.372 111.943 54.7806 112.269 54.3666 112.684C53.9527 113.099 53.7457 113.736 53.7457 114.596C53.7457 115.188 53.7901 115.781 53.8788 116.374C53.9675 116.966 54.0266 117.559 54.0562 118.152C54.0562 118.952 53.9379 119.708 53.7014 120.419C53.4648 121.13 53.3465 121.827 53.3465 122.509C53.3465 123.309 53.6274 123.872 54.1892 124.198C54.751 124.524 55.3868 124.746 56.0964 124.865C56.9834 125.013 57.8261 125.131 58.6245 125.22C59.4228 125.309 60.2064 125.443 60.9752 125.62C61.7439 125.798 62.5127 125.991 63.2815 126.198C64.0503 126.406 64.8634 126.732 65.7209 127.176C65.8983 127.265 66.1644 127.369 66.5192 127.488C66.874 127.606 67.2732 127.739 67.7167 127.888C68.1603 128.036 68.5742 128.154 68.9586 128.243C69.343 128.332 69.6239 128.377 69.8013 128.377ZM86.0343 123.042C86.8622 123.042 87.7493 122.953 88.6954 122.775C89.6416 122.597 90.5878 122.346 91.534 122.02C92.4802 121.694 93.382 121.308 94.2395 120.864C95.097 120.419 95.8658 119.93 96.5458 119.397C96.605 119.337 96.6641 119.248 96.7232 119.13C96.7824 119.011 96.8267 118.893 96.8563 118.774V118.73C97.0337 118.078 97.1815 117.367 97.2998 116.596C97.4181 115.825 97.5216 115.04 97.6103 114.24C97.699 113.44 97.8025 112.654 97.9208 111.884C98.039 111.113 98.1425 110.357 98.2312 109.617C98.3495 108.816 98.4973 108.046 98.6747 107.305C98.8522 106.564 99.0887 105.867 99.3844 105.215C99.6801 104.563 100.079 103.986 100.582 103.482C101.085 102.978 101.735 102.504 102.533 102.059V101.97L102.489 101.837C102.489 101.57 102.578 101.289 102.755 100.992C102.933 100.696 103.154 100.385 103.42 100.059C103.687 99.7326 103.967 99.4807 104.263 99.3029C104.559 99.1251 104.869 98.9769 105.195 98.8583C105.017 98.147 104.825 97.4358 104.618 96.7245C104.411 96.0132 104.234 95.3019 104.086 94.5906C103.908 93.5237 103.731 92.6198 103.554 91.8788C103.376 91.1379 103.169 90.4563 102.933 89.8339C102.696 89.2115 102.356 88.604 101.912 88.0112C101.469 87.4185 100.922 86.7072 100.271 85.8774C99.9462 85.4921 99.7244 85.1957 99.6061 84.9883C99.4879 84.7808 99.3992 84.4104 99.34 83.8769C99.3105 83.6694 99.2218 83.2842 99.0739 82.7211C98.9261 82.158 98.7339 81.5059 98.4973 80.765C98.2608 80.0241 97.9947 79.2535 97.699 78.4533C97.4033 77.6532 97.0781 76.927 96.7232 76.275C96.3684 75.623 96.0432 75.0747 95.7475 74.6302C95.4518 74.1856 95.1413 73.9634 94.8161 73.9634C94.1064 73.9634 93.2637 74.2449 92.288 74.808C91.3122 75.3711 90.2773 75.9935 89.1833 76.6751C88.0893 77.3568 87.0248 77.994 85.9899 78.5867C84.9551 79.1795 84.0237 79.461 83.1957 79.4314C82.3087 79.4314 81.4956 79.1498 80.7564 78.5867C80.0171 78.0236 79.3371 77.3716 78.7161 76.6307C78.0952 75.8898 77.5778 75.2526 77.1638 74.7191C76.7499 74.1856 76.4394 73.8893 76.2324 73.83C75.9959 73.83 75.8628 74.0078 75.8332 74.3635C75.8037 74.7191 75.7889 75.1192 75.7889 75.5638V76.3195C75.7889 76.4973 75.7593 76.6159 75.7002 76.6751C75.3749 77.3568 75.0201 78.0236 74.6357 78.6756C74.2513 79.3276 73.8669 79.9945 73.4826 80.6761C73.0982 81.3578 72.8025 82.0542 72.5955 82.7655C72.3885 83.4768 72.2703 84.2177 72.2407 84.9883C72.2407 85.4328 72.2703 85.8774 72.3294 86.3219C72.3885 86.7665 72.5364 87.1962 72.7729 87.6111L72.6842 87.789C72.4477 88.115 72.1963 88.4113 71.9302 88.6781C71.6641 88.9448 71.4128 89.256 71.1762 89.6116C70.0822 91.2417 69.3134 93.005 68.8699 94.9018C68.4264 96.7986 68.1898 98.725 68.1603 100.681C68.1603 101.185 68.1898 101.689 68.249 102.192C68.3081 102.696 68.3377 103.2 68.3377 103.704C68.3377 103.852 68.3229 104.015 68.2933 104.193C68.2637 104.371 68.249 104.534 68.249 104.682C68.7516 104.712 69.343 104.919 70.0231 105.304C70.7031 105.69 71.4423 106.179 72.2407 106.771C73.039 107.364 73.793 108.046 74.5027 108.816C75.2123 109.587 75.8924 110.343 76.5429 111.084C77.1934 111.824 77.6665 112.565 77.9622 113.306C78.2578 114.047 78.45 114.655 78.5387 115.129C78.5387 115.9 78.3022 116.522 77.8291 116.996C77.356 117.47 76.7646 117.856 76.055 118.152C76.5577 119.041 77.1786 119.797 77.9178 120.419C78.657 121.042 79.4554 121.545 80.3128 121.931C81.1703 122.316 82.1017 122.597 83.107 122.775C84.1124 122.953 85.0881 123.042 86.0343 123.042ZM103.82 129.355C104.441 129.355 105.047 129.266 105.638 129.088C106.555 128.821 107.397 128.436 108.166 127.932C108.935 127.428 109.645 126.806 110.295 126.065C111.093 125.146 111.936 124.346 112.823 123.664C113.71 122.983 114.716 122.36 115.839 121.797C116.342 121.56 116.83 121.338 117.303 121.13C117.776 120.923 118.264 120.671 118.766 120.375C119.092 120.167 119.402 119.915 119.698 119.619C119.993 119.323 120.141 118.967 120.141 118.552C120.141 118.315 120.097 118.093 120.008 117.885C119.92 117.678 119.787 117.455 119.609 117.218C119.166 116.596 118.781 116.018 118.456 115.485C118.131 114.951 117.85 114.388 117.613 113.795C117.377 113.203 117.14 112.61 116.904 112.017C116.667 111.424 116.46 110.758 116.283 110.017C116.253 109.868 116.15 109.676 115.972 109.439C115.351 108.55 114.479 108.105 113.355 108.105C112.823 108.105 112.321 108.238 111.847 108.505C111.374 108.772 110.872 109.053 110.339 109.35C109.807 109.646 109.275 109.928 108.743 110.194C108.211 110.461 107.649 110.595 107.057 110.595C106.466 110.595 105.978 110.446 105.594 110.15C105.209 109.854 104.884 109.454 104.618 108.95C104.352 108.446 104.13 107.957 103.953 107.483C103.775 107.008 103.598 106.519 103.42 106.016C103.184 106.401 102.918 106.757 102.622 107.083C102.326 107.409 102.09 107.794 101.912 108.238C101.528 109.128 101.292 110.12 101.203 111.217C101.055 112.936 100.863 114.61 100.626 116.24C100.39 117.87 99.9905 119.5 99.4287 121.13C99.2809 121.605 99.1626 122.123 99.0739 122.686C98.9852 123.249 98.9261 123.798 98.8965 124.331C98.8965 125.783 99.34 126.984 100.227 127.932C101.114 128.88 102.312 129.355 103.82 129.355Z" fill="white"/>
</svg>
