<svg width="558" height="174" viewBox="0 0 558 174" fill="none" xmlns="http://www.w3.org/2000/svg">
<circle cx="87" cy="87" r="87" fill="#FC5E00"/>
<path d="M104.705 63.4846C96.8282 63.4846 93.4994 67.2432 88.0139 67.2432C82.3896 67.2432 78.0997 63.512 71.274 63.512C64.5929 63.512 57.4684 67.591 52.944 74.5397C46.5911 84.3386 47.6694 102.794 57.9587 118.516C61.6392 124.144 66.5543 130.456 73.0009 130.524H73.1182C78.7209 130.524 80.3853 126.855 88.0959 126.812H88.2131C95.8085 126.812 97.3323 130.503 102.912 130.503H103.029C109.475 130.434 114.654 123.441 118.335 117.834C120.984 113.802 121.968 111.778 124 107.217C109.116 101.567 106.725 80.4667 121.445 72.3771C116.952 66.7509 110.638 63.4924 104.685 63.4924L104.705 63.4846Z" fill="white"/>
<path d="M102.97 43C98.2817 43.3184 92.8118 46.3034 89.608 50.2007C86.7011 53.7327 84.31 58.9721 85.2477 64.0533H85.6227C90.616 64.0533 95.7264 61.0468 98.7114 57.1944C101.587 53.5276 103.767 48.3312 102.97 43Z" fill="white"/>
<circle cx="279" cy="87" r="87" fill="#FC5E00"/>
<path d="M316 89.0067H274.482V118.973L316 125V89.0067ZM271.804 89.0067H241V114.118L271.804 118.588V89.0067ZM316 50L274.482 55.9263V86.3281H316V50ZM271.804 56.3114L241 60.7143V86.3281H271.804V56.3114Z" fill="white"/>
<circle cx="471" cy="87" r="87" fill="#FC5E00"/>
<path d="M500.682 105.482C501.628 105.897 502.338 106.46 502.811 107.171C503.284 107.883 503.624 108.742 503.831 109.75C503.949 110.343 504.082 110.891 504.23 111.395C504.378 111.899 504.555 112.373 504.762 112.817C504.969 113.262 505.206 113.692 505.472 114.106C505.738 114.521 506.093 114.981 506.536 115.485C506.921 115.9 507.261 116.433 507.556 117.085C507.852 117.737 508 118.359 508 118.952C508 119.634 507.823 120.212 507.468 120.686C507.113 121.16 506.669 121.575 506.137 121.931C505.457 122.405 504.747 122.82 504.008 123.175C503.269 123.531 502.53 123.901 501.791 124.287C500.578 124.879 499.529 125.502 498.642 126.154C497.755 126.806 496.868 127.636 495.98 128.643C495.507 129.177 494.975 129.695 494.384 130.199C493.792 130.703 493.142 131.177 492.432 131.622C491.723 132.066 490.998 132.392 490.259 132.6C489.52 132.807 488.781 132.941 488.041 133C486.326 133 484.907 132.704 483.784 132.111C482.66 131.518 481.684 130.436 480.856 128.866C480.62 128.421 480.383 128.14 480.147 128.021C479.91 127.902 479.526 127.799 478.993 127.71C477.486 127.591 475.992 127.473 474.514 127.354C473.035 127.236 471.527 127.176 469.99 127.176C468.748 127.176 467.477 127.28 466.176 127.488C464.875 127.695 463.588 127.947 462.317 128.243C462.051 128.303 461.785 128.525 461.519 128.91C461.253 129.295 460.883 129.725 460.41 130.199C459.937 130.674 459.301 131.088 458.503 131.444C457.704 131.8 456.655 131.992 455.354 132.022C454.378 132.022 453.328 131.918 452.205 131.711C451.081 131.503 450.076 131.163 449.189 130.688C447.355 129.77 445.552 129.147 443.778 128.821C442.004 128.495 440.126 128.199 438.145 127.932C437.465 127.843 436.814 127.725 436.193 127.576C435.572 127.428 435.025 127.176 434.552 126.821C434.079 126.465 433.71 126.05 433.444 125.576C433.177 125.102 433.03 124.435 433 123.575C433 122.657 433.118 121.768 433.355 120.908C433.591 120.049 433.724 119.145 433.754 118.196C433.754 117.544 433.71 116.907 433.621 116.285C433.532 115.662 433.473 114.996 433.444 114.284C433.444 112.773 433.798 111.661 434.508 110.95C435.218 110.239 436.253 109.676 437.613 109.261C438.263 109.053 438.825 108.772 439.298 108.416C439.771 108.061 440.215 107.675 440.629 107.26C441.043 106.845 441.427 106.386 441.782 105.882C442.137 105.378 442.536 104.875 442.979 104.371C443.068 104.252 443.112 104.119 443.112 103.971C443.112 103.615 443.098 103.274 443.068 102.948C443.038 102.622 443.009 102.267 442.979 101.881C442.979 99.866 443.29 97.8359 443.911 95.7909C444.532 93.746 445.345 91.7455 446.35 89.7894C447.355 87.8334 448.479 85.9515 449.721 84.1436C450.963 82.3358 452.19 80.6613 453.402 79.1202C455.117 76.927 456.403 74.645 457.261 72.2741C458.118 69.9031 458.562 67.3247 458.591 64.5388C458.591 63.3534 458.532 62.1827 458.414 61.0269C458.296 59.871 458.237 58.6856 458.237 57.4704C458.237 55.0995 458.503 52.9656 459.035 51.0689C459.567 49.1721 460.395 47.5421 461.519 46.1788C462.642 44.8155 464.106 43.793 465.91 43.1114C467.713 42.4297 469.872 42.0593 472.385 42C475.371 42 477.752 42.5927 479.526 43.7782C481.3 44.9637 482.66 46.5196 483.606 48.446C484.552 50.3724 485.158 52.5211 485.425 54.892C485.691 57.263 485.839 59.6636 485.868 62.0938V62.8495C485.868 64.0646 485.883 65.1464 485.912 66.0948C485.942 67.0432 486.06 67.9767 486.267 68.8955C486.474 69.8142 486.785 70.7329 487.199 71.6517C487.613 72.5704 488.234 73.5633 489.062 74.6302C490.481 76.4973 491.93 78.3793 493.408 80.276C494.886 82.1728 496.232 84.1288 497.444 86.1441C498.656 88.1594 499.647 90.2636 500.416 92.4568C501.185 94.6499 501.584 97.0208 501.613 99.5696C501.613 101.615 501.303 103.585 500.682 105.482ZM463.47 59.1597C463.884 59.1597 464.224 59.2635 464.49 59.4709C464.756 59.6784 464.963 59.9599 465.111 60.3156C465.259 60.6712 465.363 61.0269 465.422 61.3825C465.481 61.7382 465.51 62.1086 465.51 62.4939C465.51 62.7903 465.466 63.0274 465.377 63.2052C465.289 63.383 465.156 63.546 464.978 63.6942C464.801 63.8424 464.623 63.9906 464.446 64.1387C464.268 64.2869 464.091 64.4647 463.914 64.6722C463.707 64.9982 463.426 65.2649 463.071 65.4724C462.716 65.6799 462.376 65.9021 462.051 66.1392C461.726 66.3763 461.43 66.6282 461.164 66.895C460.898 67.1617 460.765 67.5322 460.765 68.0064C460.765 68.2731 460.898 68.4954 461.164 68.6732C461.873 69.1474 462.376 69.7253 462.672 70.4069C462.967 71.0886 463.293 71.7554 463.648 72.4074C464.002 73.0594 464.461 73.6077 465.022 74.0523C465.584 74.4968 466.457 74.7191 467.639 74.7191H467.905C469.088 74.6598 470.212 74.3486 471.276 73.7855C472.341 73.2224 473.405 72.6297 474.47 72.0073C474.617 71.9184 474.81 71.8295 475.046 71.7406C475.283 71.6517 475.475 71.548 475.623 71.4294L478.86 68.8955C478.92 68.688 478.964 68.4954 478.993 68.3175C479.023 68.1397 479.053 67.9323 479.082 67.6952C479.082 67.3692 479.008 67.1024 478.86 66.895C478.713 66.6875 478.535 66.5097 478.328 66.3615C478.121 66.2133 477.87 66.1096 477.574 66.0503C477.279 65.991 477.012 65.917 476.776 65.828C476.066 65.6799 475.401 65.4131 474.78 65.0278C474.159 64.6426 473.509 64.3462 472.829 64.1387C472.71 64.1091 472.622 64.0202 472.562 63.872C472.503 63.7238 472.444 63.546 472.385 63.3385C472.326 63.1311 472.311 62.9384 472.341 62.7606C472.37 62.5828 472.355 62.4346 472.296 62.3161C472.296 61.9604 472.326 61.59 472.385 61.2047C472.444 60.8194 472.577 60.4489 472.784 60.0933C472.991 59.7377 473.228 59.4709 473.494 59.2931C473.76 59.1153 474.144 59.0116 474.647 58.9819C475.564 58.9819 476.229 59.3227 476.643 60.0044C477.057 60.686 477.279 61.427 477.308 62.2272C477.308 62.6124 477.234 62.9533 477.086 63.2496C476.938 63.546 476.865 63.872 476.865 64.2277C476.865 64.4647 476.938 64.6277 477.086 64.7167C477.234 64.8056 477.426 64.8648 477.663 64.8945C478.343 64.8945 478.787 64.7315 478.993 64.4055C479.2 64.0795 479.319 63.5905 479.348 62.9384C479.348 62.2568 479.289 61.5011 479.171 60.6712C479.053 59.8414 478.816 59.0708 478.461 58.3596C478.106 57.6483 477.648 57.0555 477.086 56.5813C476.525 56.1071 475.8 55.8701 474.913 55.8701C473.376 55.8701 472.267 56.2553 471.587 57.0259C470.907 57.7965 470.552 58.9523 470.522 60.4934C470.522 60.938 470.552 61.3825 470.611 61.8271C470.67 62.2716 470.7 62.7162 470.7 63.1607C470.7 63.3089 470.685 63.383 470.655 63.383C470.626 63.383 470.537 63.3534 470.389 63.2941C470.241 63.2348 470.064 63.1607 469.857 63.0718C469.65 62.9829 469.428 62.9088 469.192 62.8495C468.955 62.7903 468.719 62.7606 468.482 62.7606C468.423 62.7606 468.275 62.7754 468.038 62.8051C467.802 62.8347 467.565 62.8495 467.329 62.8495C466.915 62.8495 466.708 62.7754 466.708 62.6273C466.708 62.1827 466.678 61.6196 466.619 60.938C466.56 60.2563 466.412 59.5747 466.176 58.893C465.939 58.2114 465.643 57.6483 465.289 57.2037C464.934 56.7592 464.402 56.5221 463.692 56.4924C463.189 56.4924 462.76 56.6554 462.406 56.9814C462.051 57.3074 461.74 57.6927 461.474 58.1373C461.208 58.5818 461.046 59.0857 460.986 59.6488C460.927 60.2119 460.868 60.686 460.809 61.0713C460.809 61.2491 460.839 61.5603 460.898 62.0049C460.957 62.4494 461.06 62.9088 461.208 63.383C461.356 63.8572 461.519 64.2721 461.696 64.6277C461.873 64.9834 462.08 65.1612 462.317 65.1612C462.465 65.1612 462.657 65.0575 462.894 64.85C463.13 64.6426 463.248 64.4499 463.248 64.2721C463.248 64.1832 463.204 64.1239 463.115 64.0943C463.027 64.0646 462.938 64.0498 462.849 64.0498C462.642 64.0498 462.465 63.9461 462.317 63.7386C462.169 63.5312 462.051 63.2941 461.962 63.0274C461.873 62.7606 461.785 62.4791 461.696 62.1827C461.607 61.8863 461.578 61.6641 461.607 61.5159C461.607 60.9231 461.74 60.3897 462.007 59.9155C462.273 59.4413 462.76 59.1894 463.47 59.1597ZM453.801 128.377C454.511 128.377 455.206 128.317 455.886 128.199C456.566 128.08 457.202 127.843 457.793 127.488C458.384 127.132 458.828 126.673 459.124 126.109C459.419 125.546 459.597 124.835 459.656 123.976C459.656 123.442 459.567 122.923 459.39 122.42C459.212 121.916 458.961 121.442 458.636 120.997C458.281 120.434 457.897 119.901 457.483 119.397C457.069 118.893 456.684 118.359 456.329 117.796C455.768 116.966 455.221 116.151 454.688 115.351C454.156 114.551 453.624 113.706 453.092 112.817C452.619 112.047 452.175 111.276 451.761 110.506C451.347 109.735 450.844 108.979 450.253 108.238C449.898 107.794 449.484 107.394 449.011 107.038C448.538 106.682 447.991 106.505 447.37 106.505C446.72 106.505 446.158 106.712 445.685 107.127C445.212 107.542 444.724 108.046 444.221 108.638C443.719 109.231 443.157 109.809 442.536 110.372C441.915 110.935 441.116 111.38 440.141 111.706C439.372 111.943 438.781 112.269 438.367 112.684C437.953 113.099 437.746 113.736 437.746 114.596C437.746 115.188 437.79 115.781 437.879 116.374C437.967 116.966 438.027 117.559 438.056 118.152C438.056 118.952 437.938 119.708 437.701 120.419C437.465 121.13 437.347 121.827 437.347 122.509C437.347 123.309 437.627 123.872 438.189 124.198C438.751 124.524 439.387 124.746 440.096 124.865C440.983 125.013 441.826 125.131 442.624 125.22C443.423 125.309 444.206 125.443 444.975 125.62C445.744 125.798 446.513 125.991 447.281 126.198C448.05 126.406 448.863 126.732 449.721 127.176C449.898 127.265 450.164 127.369 450.519 127.488C450.874 127.606 451.273 127.739 451.717 127.888C452.16 128.036 452.574 128.154 452.959 128.243C453.343 128.332 453.624 128.377 453.801 128.377ZM470.034 123.042C470.862 123.042 471.749 122.953 472.695 122.775C473.642 122.597 474.588 122.346 475.534 122.02C476.48 121.694 477.382 121.308 478.24 120.864C479.097 120.419 479.866 119.93 480.546 119.397C480.605 119.337 480.664 119.248 480.723 119.13C480.782 119.011 480.827 118.893 480.856 118.774V118.73C481.034 118.078 481.182 117.367 481.3 116.596C481.418 115.825 481.522 115.04 481.61 114.24C481.699 113.44 481.802 112.654 481.921 111.884C482.039 111.113 482.143 110.357 482.231 109.617C482.349 108.816 482.497 108.046 482.675 107.305C482.852 106.564 483.089 105.867 483.384 105.215C483.68 104.563 484.079 103.986 484.582 103.482C485.085 102.978 485.735 102.504 486.533 102.059V101.97L486.489 101.837C486.489 101.57 486.578 101.289 486.755 100.992C486.933 100.696 487.154 100.385 487.42 100.059C487.687 99.7326 487.967 99.4807 488.263 99.3029C488.559 99.1251 488.869 98.9769 489.195 98.8583C489.017 98.147 488.825 97.4358 488.618 96.7245C488.411 96.0132 488.234 95.3019 488.086 94.5906C487.908 93.5237 487.731 92.6198 487.554 91.8788C487.376 91.1379 487.169 90.4563 486.933 89.8339C486.696 89.2115 486.356 88.604 485.912 88.0112C485.469 87.4185 484.922 86.7072 484.271 85.8774C483.946 85.4921 483.724 85.1957 483.606 84.9883C483.488 84.7808 483.399 84.4104 483.34 83.8769C483.31 83.6694 483.222 83.2842 483.074 82.7211C482.926 82.158 482.734 81.5059 482.497 80.765C482.261 80.0241 481.995 79.2535 481.699 78.4533C481.403 77.6532 481.078 76.927 480.723 76.275C480.368 75.623 480.043 75.0747 479.747 74.6302C479.452 74.1856 479.141 73.9634 478.816 73.9634C478.106 73.9634 477.264 74.2449 476.288 74.808C475.312 75.3711 474.277 75.9935 473.183 76.6751C472.089 77.3568 471.025 77.994 469.99 78.5867C468.955 79.1795 468.024 79.461 467.196 79.4314C466.309 79.4314 465.496 79.1498 464.756 78.5867C464.017 78.0236 463.337 77.3716 462.716 76.6307C462.095 75.8898 461.578 75.2526 461.164 74.7191C460.75 74.1856 460.439 73.8893 460.232 73.83C459.996 73.83 459.863 74.0078 459.833 74.3635C459.804 74.7191 459.789 75.1192 459.789 75.5638V76.3195C459.789 76.4973 459.759 76.6159 459.7 76.6751C459.375 77.3568 459.02 78.0236 458.636 78.6756C458.251 79.3276 457.867 79.9945 457.483 80.6761C457.098 81.3578 456.802 82.0542 456.596 82.7655C456.389 83.4768 456.27 84.2177 456.241 84.9883C456.241 85.4328 456.27 85.8774 456.329 86.3219C456.389 86.7665 456.536 87.1962 456.773 87.6111L456.684 87.789C456.448 88.115 456.196 88.4113 455.93 88.6781C455.664 88.9448 455.413 89.256 455.176 89.6116C454.082 91.2417 453.313 93.005 452.87 94.9018C452.426 96.7986 452.19 98.725 452.16 100.681C452.16 101.185 452.19 101.689 452.249 102.192C452.308 102.696 452.338 103.2 452.338 103.704C452.338 103.852 452.323 104.015 452.293 104.193C452.264 104.371 452.249 104.534 452.249 104.682C452.752 104.712 453.343 104.919 454.023 105.304C454.703 105.69 455.442 106.179 456.241 106.771C457.039 107.364 457.793 108.046 458.503 108.816C459.212 109.587 459.892 110.343 460.543 111.084C461.193 111.824 461.666 112.565 461.962 113.306C462.258 114.047 462.45 114.655 462.539 115.129C462.539 115.9 462.302 116.522 461.829 116.996C461.356 117.47 460.765 117.856 460.055 118.152C460.558 119.041 461.179 119.797 461.918 120.419C462.657 121.042 463.455 121.545 464.313 121.931C465.17 122.316 466.102 122.597 467.107 122.775C468.112 122.953 469.088 123.042 470.034 123.042ZM487.82 129.355C488.441 129.355 489.047 129.266 489.638 129.088C490.555 128.821 491.397 128.436 492.166 127.932C492.935 127.428 493.645 126.806 494.295 126.065C495.093 125.146 495.936 124.346 496.823 123.664C497.71 122.983 498.716 122.36 499.839 121.797C500.342 121.56 500.83 121.338 501.303 121.13C501.776 120.923 502.264 120.671 502.766 120.375C503.092 120.167 503.402 119.915 503.698 119.619C503.993 119.323 504.141 118.967 504.141 118.552C504.141 118.315 504.097 118.093 504.008 117.885C503.92 117.678 503.787 117.455 503.609 117.218C503.166 116.596 502.781 116.018 502.456 115.485C502.131 114.951 501.85 114.388 501.613 113.795C501.377 113.203 501.14 112.61 500.904 112.017C500.667 111.424 500.46 110.758 500.283 110.017C500.253 109.868 500.15 109.676 499.972 109.439C499.351 108.55 498.479 108.105 497.355 108.105C496.823 108.105 496.321 108.238 495.847 108.505C495.374 108.772 494.872 109.053 494.339 109.35C493.807 109.646 493.275 109.928 492.743 110.194C492.211 110.461 491.649 110.595 491.057 110.595C490.466 110.595 489.978 110.446 489.594 110.15C489.209 109.854 488.884 109.454 488.618 108.95C488.352 108.446 488.13 107.957 487.953 107.483C487.775 107.008 487.598 106.519 487.42 106.016C487.184 106.401 486.918 106.757 486.622 107.083C486.326 107.409 486.09 107.794 485.912 108.238C485.528 109.128 485.292 110.12 485.203 111.217C485.055 112.936 484.863 114.61 484.626 116.24C484.39 117.87 483.991 119.5 483.429 121.13C483.281 121.605 483.163 122.123 483.074 122.686C482.985 123.249 482.926 123.798 482.897 124.331C482.897 125.783 483.34 126.984 484.227 127.932C485.114 128.88 486.312 129.355 487.82 129.355Z" fill="white"/>
</svg>
