<svg width="86" height="34" viewBox="0 0 86 34" fill="none" xmlns="http://www.w3.org/2000/svg">
<rect width="86" height="34" rx="4" fill="#E54B2A"/>
<path d="M63.6161 9.64769C65.2988 9.64272 66.9821 9.64787 68.6649 9.66325C69.1214 12.3593 69.8004 15.2199 70.2125 17.8887C71.0449 15.1272 71.9227 12.3797 72.8459 9.64739L79 9.65956C78.5629 10.8406 78.1915 12.0971 77.7724 13.29C76.2109 17.7319 74.851 22.3367 73.2679 26.7598L67.3249 26.7521C67.1576 25.7935 66.756 24.3392 66.5159 23.3714C66.1452 22.2097 65.4964 19.2598 65.2499 18.03C64.4991 20.8175 63.5986 24.0147 62.7434 26.7599L56.91 26.7554C56.7439 25.9967 56.4554 25.0194 56.2525 24.2537C55.9192 22.9589 55.5717 21.6678 55.2098 20.3808C57.6573 17.8613 59.7346 13.389 59.2328 9.80691C59.9952 12.0043 60.6195 14.6329 61.1848 16.9064C62.0097 14.4915 62.8198 12.072 63.6161 9.64769Z" fill="white"/>
<path d="M24.687 9.64955C25.6283 9.57024 27.4703 9.64915 28.5017 9.63177C29.2824 9.61861 31.5745 9.5872 32.2457 9.68255C32.4379 9.66196 32.6553 9.63148 32.8464 9.63294C32.1448 10.5276 30.9214 11.766 30.1146 12.6231C28.3875 14.4662 26.631 16.2817 24.8461 18.0686C25.32 18.6886 25.9248 19.4754 26.3579 20.1265C25.5233 22.5072 25.4927 24.5279 26.8959 26.7478C25.4446 26.762 23.9934 26.7656 22.5421 26.7585C21.6168 25.6697 20.2944 23.5905 19.3731 22.3398C18.4414 23.3302 17.5632 24.3702 16.6583 25.3835C16.2847 25.8019 15.8244 26.3722 15.445 26.7511L12.2382 26.7516C10.5722 26.8006 8.67496 26.7703 7 26.7539C8.00179 25.5838 9.01571 24.5899 10.0931 23.4896C11.8961 21.644 13.7197 19.8188 15.5635 18.0143C17.1129 16.5603 18.9534 14.9641 20.5567 13.5459C21.4836 12.7663 22.3219 11.7091 23.2534 10.9152C23.724 10.5141 24.1602 9.97222 24.687 9.64955Z" fill="white"/>
<path d="M32.2457 9.68256C32.4379 9.66197 32.6553 9.63149 32.8464 9.63294C32.1448 10.5276 30.9214 11.766 30.1146 12.6231C28.3875 14.4662 26.631 16.2817 24.8461 18.0686C25.32 18.6886 25.9248 19.4754 26.3579 20.1265C25.5233 22.5072 25.4927 24.5279 26.8959 26.7478C25.4447 26.762 23.9934 26.7656 22.5421 26.7585C21.6168 25.6698 20.2945 23.5905 19.3732 22.3398C18.4414 23.3302 17.5633 24.3702 16.6583 25.3835C16.2848 25.8019 15.8244 26.3722 15.4451 26.7511L12.2382 26.7516C12.6634 26.3137 13.1419 25.8594 13.5922 25.4476C16.322 22.9509 19.0269 20.3253 21.8485 17.9416C24.7632 15.511 27.7189 13.1304 30.7143 10.8009C31.2179 10.4101 31.7343 10.0817 32.2457 9.68256Z" fill="white"/>
<path d="M38.0552 9.1223C40.3471 7.91835 42.5502 7.35152 45.0374 6.80769C49.5343 5.82443 56.0235 7.02208 53.9134 13.2333C53.7934 13.5824 53.6768 13.9007 53.5083 14.2352C52.9471 15.528 51.4764 17.374 50.3264 18.2005C50.7642 16.8827 50.6027 14.8823 50.0315 13.7049C46.6228 6.67982 34.2722 9.88475 31.871 16.2207C30.9128 18.7493 30.9777 22.4305 33.404 24.0683C33.8891 24.3958 34.3764 24.5842 34.9071 24.7899C34.0041 24.6466 33.1717 24.5014 32.3007 24.2352C29.2289 23.2963 28.0575 20.397 29.167 17.4519C30.5802 13.6997 34.5929 10.796 38.0552 9.1223Z" fill="white"/>
<path d="M38.0553 9.12231C40.3472 7.91835 42.5502 7.35152 45.0374 6.80769C49.5343 5.82443 56.0235 7.02208 53.9135 13.2333C53.7934 13.5824 53.6768 13.9007 53.5084 14.2352C53.4804 14.1868 53.4239 14.0831 53.4285 14.0271C53.987 6.58347 45.583 7.3011 40.7486 8.58116C39.7053 8.85744 38.6027 9.23275 37.5396 9.55395C37.751 9.41438 37.901 9.32769 38.0553 9.12231Z" fill="white"/>
<path d="M47.7315 5.21728C50.5614 4.80623 54.0044 4.82916 56.3954 6.62966C57.5909 7.53038 58.372 8.87935 58.559 10.3681C58.7019 11.4297 58.5707 12.6176 58.2425 13.6371C57.4312 17.2456 54.1997 20.7421 51.1723 22.6694C46.132 25.8779 39.3685 27.1715 33.5781 25.5848C39.8118 26.283 46.5885 22.7969 51.0959 18.5976C51.3756 18.3366 51.6262 18.0066 51.8967 17.7519C53.9386 15.3393 57.0884 11.1292 54.5833 7.84889C53.4134 6.31688 51.283 5.92952 49.4545 5.75316C49.2633 5.59323 48.3977 5.57948 48.1185 5.57492L48.7311 5.65646C48.1838 5.65214 47.4954 5.66986 46.9528 5.69806C46.237 5.73526 46.3559 5.97275 45.544 5.7631C46.0854 5.65167 47.2821 5.50291 47.7315 5.21728Z" fill="white"/>
<path d="M51.8967 17.752C51.6274 18.7349 50.5264 18.4162 52.1986 19.6004C52.8462 20.0594 51.9573 20.5939 51.6892 20.8825C52.011 20.7699 52.3479 20.4329 52.6247 20.2137C54.2784 18.9051 55.703 17.3998 56.9084 15.6676C57.3123 15.0868 57.7156 14.1254 58.07 13.6556L58.2425 13.6371C57.4312 17.2456 54.1997 20.7421 51.1722 22.6694C46.132 25.8778 39.3685 27.1716 33.5781 25.5849C39.8118 26.2831 46.5885 22.7969 51.0959 18.5976C51.3756 18.3366 51.6262 18.0065 51.8967 17.752Z" fill="white"/>
<path d="M55.0659 20.5304C54.3833 21.4209 53.9496 22.1419 53.1481 22.9645C48.8389 27.3739 42.925 29.5091 36.8241 29.536C32.585 29.5549 26.5331 28.1634 26.3406 22.8811C26.2643 20.7905 27.4935 18.3164 28.9501 16.8374C28.1819 18.1961 27.963 19.0304 27.9567 20.5656C28.1609 22.3328 28.8097 23.5289 30.2175 24.6227C33.2351 26.9672 37.7797 27.408 41.4421 26.9861C42.0857 26.908 42.7245 26.7973 43.357 26.6545C47.8107 25.6821 51.6845 23.5582 55.0659 20.5304Z" fill="white"/>
<path d="M9.72142 9.64548C12.4321 9.69678 15.2206 9.65753 17.9381 9.66338C18.7614 10.9805 19.7165 12.2301 20.5567 13.5459C18.9534 14.9641 17.1129 16.5603 15.5635 18.0143C14.4923 16.6437 13.3086 14.7985 12.2776 13.3576C11.5957 12.4045 10.2814 10.6176 9.72142 9.64548Z" fill="white"/>
<path d="M43.2631 6.37529C42.9612 6.47515 42.1539 6.71176 41.8933 6.83097C42.3695 6.7613 43.0736 6.62711 43.5265 6.59752L43.6268 6.56488C45.3335 6.16757 47.0023 5.74985 48.7625 5.76582C48.973 5.7677 49.247 5.76694 49.4545 5.75319C49.2637 5.59366 48.4021 5.57959 48.1206 5.57499L48.1185 5.57495L48.7311 5.6565C48.1838 5.65217 47.4954 5.66989 46.9527 5.69809C46.237 5.73529 46.3559 5.97278 45.544 5.76313C46.0854 5.6517 47.2821 5.50294 47.7315 5.21731C46.2935 5.37846 44.6369 5.92061 43.2631 6.37529Z" fill="white"/>
</svg>
