<svg width="1426" height="486" viewBox="0 0 1426 486" fill="none" xmlns="http://www.w3.org/2000/svg">
<g opacity="0.06">
<path d="M1120.61 91.9933C1153.91 91.8948 1187.23 91.9968 1220.54 92.3012C1229.57 145.665 1243.01 202.284 1251.17 255.108C1267.64 200.45 1285.02 146.068 1303.29 91.9874L1425.1 92.2283C1416.45 115.606 1409.1 140.474 1400.8 164.087C1369.9 252.006 1342.98 343.147 1311.65 430.694L1194.01 430.542C1190.7 411.569 1182.76 382.784 1178 363.628C1170.66 340.634 1157.82 282.246 1152.94 257.906C1138.08 313.078 1120.26 376.36 1103.33 430.696L987.872 430.608C984.585 415.59 978.875 396.248 974.859 381.091C968.261 355.463 961.384 329.909 954.22 304.435C1002.66 254.566 1043.78 166.045 1033.85 95.1447C1048.94 138.638 1061.29 190.667 1072.48 235.665C1088.81 187.868 1104.85 139.978 1120.61 91.9933Z" fill="#B18266"/>
<path d="M350.08 92.0311C368.711 90.4612 405.17 92.0231 425.586 91.6792C441.038 91.4187 486.405 90.797 499.69 92.6841C503.495 92.2766 507.798 91.6733 511.58 91.7023C497.694 109.41 473.479 133.922 457.509 150.886C423.324 187.368 388.559 223.301 353.23 258.669C362.609 270.943 374.58 286.515 383.153 299.403C366.633 346.523 366.028 386.52 393.802 430.458C365.076 430.74 336.351 430.81 307.626 430.67C289.311 409.119 263.138 367.965 244.903 343.21C226.46 362.814 209.079 383.398 191.167 403.454C183.774 411.735 174.662 423.024 167.153 430.524L103.679 430.533C70.7054 431.504 33.1527 430.903 0 430.578C19.8285 407.419 39.8972 387.747 61.222 365.969C96.9082 329.437 133.003 293.312 169.498 257.595C200.165 228.816 236.595 197.222 268.329 169.152C286.675 153.721 303.268 132.797 321.705 117.082C331.019 109.144 339.654 98.4177 350.08 92.0311Z" fill="#B18266"/>
<path d="M499.689 92.6832C503.493 92.2756 507.796 91.6724 511.578 91.7012C497.692 109.409 473.477 133.921 457.508 150.885C423.322 187.367 388.557 223.3 353.228 258.668C362.607 270.941 374.578 286.514 383.151 299.402C366.631 346.522 366.026 386.519 393.8 430.456C365.074 430.739 336.349 430.809 307.624 430.668C289.309 409.12 263.136 367.964 244.901 343.209C226.458 362.813 209.077 383.396 191.166 403.453C183.772 411.734 174.66 423.023 167.152 430.523L103.677 430.532C112.095 421.866 121.564 412.872 130.478 404.721C184.509 355.306 238.047 303.335 293.895 256.155C351.586 208.046 410.089 160.927 469.378 114.818C479.344 107.084 489.567 100.583 499.689 92.6832Z" fill="#B18266"/>
<path d="M614.681 81.5919C660.045 57.7619 703.65 46.5427 752.879 35.7784C841.887 16.3168 970.328 40.0218 928.563 162.961C926.187 169.87 923.88 176.171 920.545 182.793C909.436 208.381 880.327 244.918 857.566 261.277C866.23 235.194 863.034 195.6 851.728 172.296C784.26 33.2475 539.803 96.683 492.276 222.092C473.31 272.14 474.595 345.003 522.618 377.42C532.22 383.902 541.865 387.631 552.369 391.701C534.496 388.865 518.021 385.991 500.781 380.723C439.981 362.139 416.796 304.754 438.754 246.461C466.728 172.192 546.151 114.72 614.681 81.5919Z" fill="#B18266"/>
<path d="M614.681 81.5919C660.045 57.7619 703.649 46.5427 752.877 35.7784C841.885 16.3168 970.326 40.0218 928.563 162.961C926.185 169.87 923.879 176.171 920.545 182.793C919.99 181.834 918.872 179.781 918.963 178.673C930.017 31.3405 763.677 45.5447 667.99 70.881C647.339 76.3494 625.514 83.7779 604.472 90.1355C608.657 87.3729 611.626 85.6571 614.681 81.5919Z" fill="#B18266"/>
<path d="M806.202 4.3006C862.214 -3.83534 930.363 -3.38146 977.688 32.256C1001.35 50.084 1016.81 76.7844 1020.51 106.252C1023.34 127.264 1020.74 150.777 1014.25 170.955C998.189 242.379 934.227 311.585 874.305 349.731C774.544 413.237 640.672 438.842 526.063 407.436C649.447 421.256 783.578 352.256 872.793 269.139C878.331 263.972 883.291 257.44 888.645 252.399C929.06 204.647 991.405 121.316 941.82 56.3883C918.665 26.0651 876.498 18.3981 840.306 14.9073C836.52 11.7419 819.388 11.4698 813.862 11.3795L825.988 12.9935C815.155 12.9078 801.529 13.2586 790.788 13.8167C776.622 14.5531 778.975 19.2537 762.904 15.1042C773.621 12.8985 797.307 9.9542 806.202 4.3006Z" fill="#B18266"/>
<path d="M888.645 252.399C883.314 271.855 861.522 265.546 894.621 288.985C907.438 298.07 889.845 308.649 884.538 314.363C890.907 312.133 897.574 305.463 903.054 301.124C935.786 275.222 963.982 245.429 987.84 211.142C995.836 199.647 1003.82 180.617 1010.83 171.319L1014.25 170.953C998.189 242.377 934.227 311.583 874.305 349.729C774.544 413.235 640.672 438.842 526.063 407.436C649.447 421.256 783.578 352.254 872.793 269.137C878.331 263.97 883.291 257.438 888.645 252.399Z" fill="#B18266"/>
<path d="M951.372 307.394C937.862 325.019 929.277 339.29 913.415 355.573C828.122 442.849 711.067 485.11 590.312 485.643C506.407 486.016 386.621 458.474 382.81 353.921C381.3 312.542 405.63 263.573 434.46 234.298C419.256 261.192 414.922 277.704 414.798 308.091C418.839 343.07 431.682 366.743 459.547 388.393C519.274 434.799 609.226 443.522 681.716 435.173C694.454 433.626 707.099 431.436 719.617 428.609C807.77 409.362 884.445 367.323 951.372 307.394Z" fill="#B18266"/>
<path d="M53.863 91.948C107.516 92.9633 162.709 92.1865 216.497 92.3023C232.792 118.372 251.696 143.106 268.327 169.15C236.593 197.219 200.163 228.814 169.496 257.593C148.293 230.465 124.864 193.941 104.459 165.423C90.9601 146.557 64.9466 111.189 53.863 91.948Z" fill="#B18266"/>
<path d="M717.758 27.2215C711.782 29.198 695.803 33.8813 690.645 36.241C700.071 34.8619 714.007 32.2059 722.972 31.6202L724.957 30.9741C758.737 23.1102 791.767 14.8422 826.608 15.1583C830.773 15.1954 836.197 15.1803 840.304 14.9083C836.528 11.7508 819.473 11.4721 813.903 11.3811L813.86 11.3804L825.986 12.9944C815.153 12.9087 801.527 13.2595 790.787 13.8176C776.62 14.554 778.973 19.2547 762.902 15.1051C773.619 12.8995 797.305 9.95512 806.2 4.30151C777.738 7.49129 744.95 18.2219 717.758 27.2215Z" fill="#B18266"/>
</g>
</svg>
