<svg width="92" height="92" viewBox="0 0 92 92" fill="none" xmlns="http://www.w3.org/2000/svg">
<rect width="92" height="92" rx="12" fill="white"/>
<mask id="mask0_6_338" style="mask-type:luminance" maskUnits="userSpaceOnUse" x="6" y="32" width="80" height="28">
<path d="M86 32H6V59.76H86V32Z" fill="white"/>
</mask>
<g mask="url(#mask0_6_338)">
<path d="M68.8009 37.328C70.661 37.3224 72.5219 37.3282 74.3821 37.3454C74.8867 40.3672 75.6373 43.5734 76.0929 46.5646C77.013 43.4695 77.9834 40.39 79.0041 37.3276L85.8071 37.3413C85.3238 38.665 84.9133 40.0733 84.45 41.4104C82.7239 46.3889 81.2206 51.55 79.4705 56.5074L72.9008 56.4989C72.7159 55.4245 72.2719 53.7945 72.0065 52.7097C71.5966 51.4076 70.8795 48.1013 70.607 46.723C69.777 49.8473 68.7815 53.4307 67.8362 56.5076L61.3876 56.5026C61.204 55.6522 60.8851 54.5569 60.6608 53.6986C60.2923 52.2474 59.9082 50.8003 59.5081 49.3578C62.2137 46.5339 64.5101 41.5212 63.9554 37.5064C64.7982 39.9693 65.4883 42.9155 66.1132 45.4636C67.0251 42.757 67.9206 40.0452 68.8009 37.328Z" fill="black"/>
<path d="M25.7665 37.3301C26.807 37.2412 28.8433 37.3296 29.9835 37.3101C30.8466 37.2954 33.3804 37.2602 34.1223 37.367C34.3348 37.344 34.5752 37.3098 34.7864 37.3114C34.0108 38.3142 32.6584 39.7022 31.7665 40.6628C29.8572 42.7287 27.9156 44.7634 25.9424 46.7662C26.4663 47.4612 27.1348 48.343 27.6136 49.0728C26.691 51.7411 26.6572 54.006 28.2084 56.494C26.6041 56.51 24.9997 56.5139 23.3954 56.506C22.3725 55.2857 20.9107 52.9553 19.8923 51.5535C18.8622 52.6636 17.8915 53.8292 16.8912 54.9649C16.4782 55.4338 15.9693 56.0731 15.55 56.4978L12.0049 56.4983C10.1633 56.5533 8.06594 56.5192 6.21434 56.5008C7.32178 55.1894 8.44262 54.0755 9.63363 52.8422C11.6267 50.7736 13.6426 48.7279 15.6809 46.7054C17.3937 45.0757 19.4283 43.2866 21.2007 41.6971C22.2253 40.8233 23.152 39.6385 24.1818 38.7486C24.7019 38.2991 25.1842 37.6917 25.7665 37.3301Z" fill="#FC5E00"/>
<path d="M34.1223 37.3671C34.3348 37.344 34.5752 37.3098 34.7864 37.3114C34.0108 38.3142 32.6584 39.7022 31.7665 40.6628C29.8572 42.7287 27.9156 44.7634 25.9424 46.7662C26.4663 47.4612 27.1348 48.343 27.6136 49.0728C26.691 51.7411 26.6572 54.006 28.2084 56.494C26.6041 56.51 24.9997 56.5139 23.3954 56.506C22.3725 55.2858 20.9107 52.9553 19.8923 51.5535C18.8622 52.6636 17.8915 53.8292 16.8912 54.9649C16.4782 55.4338 15.9693 56.0731 15.55 56.4978L12.0049 56.4983C12.475 56.0075 13.0039 55.4983 13.5017 55.0367C16.5194 52.2385 19.5095 49.2956 22.6286 46.6239C25.8507 43.8997 29.1182 41.2315 32.4294 38.6205C32.9861 38.1825 33.557 37.8144 34.1223 37.3671Z" fill="black"/>
<path d="M40.5445 36.7391C43.0781 35.3897 45.5135 34.7544 48.2629 34.1448C53.2341 33.0428 60.4076 34.3851 58.075 41.3467C57.9423 41.738 57.8135 42.0948 57.6272 42.4698C57.0068 43.9187 55.381 45.9877 54.1098 46.9141C54.5937 45.437 54.4152 43.195 53.7837 41.8754C50.0156 34.0015 36.3625 37.5937 33.7081 44.6951C32.6489 47.5292 32.7206 51.6552 35.4028 53.4909C35.9391 53.8579 36.4777 54.0691 37.0644 54.2995C36.0661 54.1389 35.146 53.9762 34.1832 53.6779C30.7874 52.6256 29.4925 49.376 30.7189 46.0751C32.2812 41.8695 36.7171 38.6151 40.5445 36.7391Z" fill="black"/>
<path d="M40.5446 36.7391C43.0782 35.3897 45.5135 34.7544 48.263 34.1448C53.2341 33.0428 60.4076 34.3851 58.0751 41.3467C57.9423 41.738 57.8135 42.0948 57.6273 42.4698C57.5963 42.4155 57.5339 42.2992 57.5389 42.2365C58.1563 33.8935 48.8661 34.6979 43.522 36.1326C42.3686 36.4422 41.1497 36.8629 39.9745 37.2229C40.2082 37.0665 40.374 36.9693 40.5446 36.7391Z" fill="#2A2A2A"/>
<path d="M51.2411 32.3623C54.3695 31.9016 58.1756 31.9273 60.8187 33.9453C62.1403 34.9548 63.0037 36.4668 63.2105 38.1354C63.3684 39.3253 63.2234 40.6567 62.8606 41.7994C61.9637 45.8439 58.3914 49.7628 55.0448 51.9229C49.473 55.519 41.9962 56.9689 35.5952 55.1905C42.4863 55.9731 49.9776 52.0658 54.9603 47.3592C55.2696 47.0666 55.5466 46.6967 55.8456 46.4113C58.1028 43.7072 61.5848 38.9885 58.8155 35.3118C57.5223 33.5947 55.1672 33.1606 53.1459 32.9629C52.9345 32.7837 51.9776 32.7683 51.669 32.7631L52.3462 32.8545C51.7412 32.8497 50.9801 32.8696 50.3803 32.9012C49.5891 32.9428 49.7205 33.209 48.823 32.9741C49.4215 32.8492 50.7444 32.6824 51.2411 32.3623Z" fill="#FC5E00"/>
<path d="M55.8456 46.4114C55.5479 47.5131 54.3308 47.1558 56.1794 48.4831C56.8953 48.9976 55.9126 49.5966 55.6162 49.9202C55.972 49.7939 56.3444 49.4162 56.6504 49.1705C58.4785 47.7038 60.0533 46.0167 61.3858 44.0751C61.8323 43.4242 62.2781 42.3466 62.6699 41.8201L62.8606 41.7994C61.9637 45.8439 58.3914 49.7628 55.0448 51.9229C49.473 55.519 41.9962 56.969 35.5952 55.1906C42.4863 55.9732 49.9776 52.0658 54.9603 47.3592C55.2696 47.0666 55.5466 46.6967 55.8456 46.4114Z" fill="#FC5E00"/>
<path d="M59.349 49.5255C58.5944 50.5235 58.115 51.3316 57.229 52.2537C52.4654 57.1958 45.9278 59.5889 39.1835 59.6191C34.4974 59.6403 27.8073 58.0806 27.5945 52.1601C27.5101 49.817 28.869 47.044 30.4791 45.3863C29.63 46.9092 29.3879 47.8442 29.381 49.5649C29.6067 51.5457 30.324 52.8862 31.8803 54.1122C35.216 56.74 40.2399 57.2339 44.2885 56.7611C44.9999 56.6736 45.7062 56.5495 46.4053 56.3895C51.3287 55.2996 55.611 52.919 59.349 49.5255Z" fill="black"/>
<path d="M9.22273 37.3255C12.2193 37.383 15.3018 37.339 18.3059 37.3455C19.216 38.8218 20.2718 40.2224 21.2006 41.6972C19.4283 43.2866 17.3937 45.0757 15.6809 46.7054C14.4967 45.1692 13.1882 43.101 12.0485 41.4861C11.2946 40.4178 9.84175 38.415 9.22273 37.3255Z" fill="#FB5201"/>
<path d="M46.3016 33.6602C45.9678 33.7721 45.0754 34.0373 44.7873 34.1709C45.3138 34.0928 46.0921 33.9424 46.5928 33.9093L46.7037 33.8727C48.5903 33.4274 50.4351 32.9592 52.3809 32.9771C52.6136 32.9792 52.9165 32.9783 53.1459 32.9629C52.935 32.7841 51.9825 32.7684 51.6713 32.7632L51.669 32.7632L52.3462 32.8546C51.7412 32.8497 50.9801 32.8696 50.3803 32.9012C49.5891 32.9429 49.7205 33.2091 48.8229 32.9741C49.4215 32.8492 50.7444 32.6824 51.2411 32.3623C49.6515 32.5429 47.8203 33.1506 46.3016 33.6602Z" fill="#FD7901"/>
</g>
</svg>
