<svg width="92" height="42" viewBox="0 0 92 42" fill="none" xmlns="http://www.w3.org/2000/svg">
<rect width="92" height="42" rx="6" fill="black"/>
<path d="M67.1887 12.8643C68.9182 12.8591 70.6483 12.8645 72.3778 12.8806C72.847 15.7024 73.5448 18.6963 73.9684 21.4895C74.8239 18.5993 75.7261 15.7237 76.675 12.864L83 12.8768C82.5507 14.1129 82.169 15.4279 81.7383 16.6765C80.1334 21.3255 78.7358 26.1448 77.1087 30.7741L71.0006 30.7661C70.8287 29.7629 70.4159 28.2407 70.1691 27.2278C69.7881 26.0119 69.1213 22.9245 68.868 21.6375C68.0963 24.5548 67.1707 27.9011 66.2919 30.7742L60.2964 30.7696C60.1257 29.9755 59.8292 28.9527 59.6206 28.1512C59.278 26.7961 58.9209 25.4448 58.549 24.0978C61.0644 21.4608 63.1995 16.78 62.6838 13.031C63.4673 15.3308 64.1089 18.082 64.69 20.4614C65.5377 17.934 66.3704 15.4016 67.1887 12.8643Z" fill="#FCFCFC"/>
<path d="M27.1783 12.8663C28.1457 12.7833 30.0389 12.8659 31.099 12.8477C31.9014 12.8339 34.2571 12.801 34.947 12.9008C35.1445 12.8793 35.368 12.8474 35.5643 12.8489C34.8433 13.7852 33.5859 15.0814 32.7567 15.9784C30.9816 17.9075 29.1763 19.8076 27.3418 21.6778C27.8289 22.3268 28.4505 23.1502 28.8956 23.8317C28.0378 26.3233 28.0064 28.4382 29.4486 30.7616C27.957 30.7765 26.4654 30.7802 24.9738 30.7728C24.0228 29.6332 22.6637 27.4571 21.7168 26.1481C20.7592 27.1847 19.8567 28.2731 18.9266 29.3337C18.5426 29.7716 18.0695 30.3685 17.6796 30.7651L14.3837 30.7656C12.6715 30.8169 10.7215 30.7851 9 30.768C10.0296 29.5433 11.0717 28.5031 12.179 27.3516C14.0321 25.4198 15.9063 23.5096 17.8014 21.621C19.3938 20.0992 21.2855 18.4285 22.9333 16.9443C23.8859 16.1283 24.7475 15.0219 25.7049 14.1909C26.1885 13.7712 26.6369 13.204 27.1783 12.8663Z" fill="#FC5E00"/>
<path d="M34.947 12.9009C35.1445 12.8793 35.368 12.8474 35.5643 12.8489C34.8433 13.7853 33.5859 15.0814 32.7567 15.9785C30.9816 17.9075 29.1763 19.8076 27.3418 21.6778C27.8289 22.3268 28.4505 23.1502 28.8956 23.8317C28.0378 26.3233 28.0064 28.4383 29.4486 30.7616C27.957 30.7765 26.4654 30.7802 24.9738 30.7728C24.0228 29.6334 22.6637 27.4571 21.7168 26.1482C20.7592 27.1847 19.8567 28.2732 18.9266 29.3337C18.5427 29.7716 18.0695 30.3685 17.6796 30.7651L14.3837 30.7656C14.8207 30.3073 15.3125 29.8318 15.7753 29.4008C18.5809 26.7878 21.3609 24.0397 24.2609 21.5449C27.2566 19.001 30.2944 16.5094 33.373 14.0713C33.8906 13.6623 34.4214 13.3186 34.947 12.9009Z" fill="#FCFCFC"/>
<path d="M40.9179 12.3145C43.2735 11.0544 45.5377 10.4611 48.094 9.89196C52.7158 8.86287 59.3852 10.1163 57.2166 16.6171C57.0932 16.9825 56.9734 17.3156 56.8002 17.6658C56.2234 19.0188 54.7119 20.9508 53.53 21.8158C53.9799 20.4366 53.8139 18.343 53.2268 17.1107C49.7235 9.75813 37.0298 13.1125 34.5619 19.7438C33.5771 22.3902 33.6438 26.2431 36.1374 27.9573C36.636 28.3 37.1369 28.4972 37.6823 28.7124C36.7542 28.5624 35.8987 28.4105 35.0035 28.1319C31.8464 27.1492 30.6425 24.1148 31.7827 21.0324C33.2353 17.1052 37.3594 14.0662 40.9179 12.3145Z" fill="#FCFCFC"/>
<path d="M40.918 12.3145C43.2735 11.0544 45.5377 10.4611 48.094 9.89196C52.7158 8.86287 59.3852 10.1163 57.2167 16.6171C57.0932 16.9825 56.9734 17.3156 56.8003 17.6658C56.7715 17.6151 56.7134 17.5065 56.7182 17.4479C57.2922 9.65729 48.6548 10.4084 43.6861 11.7481C42.6138 12.0373 41.4805 12.4301 40.3879 12.7662C40.6052 12.6202 40.7594 12.5294 40.918 12.3145Z" fill="#E2E2E2"/>
<path d="M50.8629 8.22741C53.7714 7.7972 57.3101 7.8212 59.7675 9.70563C60.9962 10.6483 61.799 12.0602 61.9912 13.6184C62.138 14.7294 62.0032 15.9728 61.6659 17.0397C60.832 20.8165 57.5108 24.476 54.3992 26.4931C49.219 29.8511 42.2676 31.205 36.3164 29.5444C42.7232 30.2751 49.6881 26.6266 54.3207 22.2315C54.6083 21.9583 54.8659 21.6129 55.1438 21.3464C57.2424 18.8213 60.4798 14.4149 57.905 10.9817C56.7027 9.37827 54.5131 8.97285 52.6338 8.78827C52.4372 8.62089 51.5476 8.6065 51.2607 8.60172L51.8903 8.68707C51.3278 8.68254 50.6202 8.70109 50.0625 8.7306C49.3269 8.76953 49.4491 9.01809 48.6146 8.79868C49.1711 8.68205 50.401 8.52636 50.8629 8.22741Z" fill="#FC5E00"/>
<path d="M55.1438 21.3464C54.8671 22.3752 53.7355 22.0416 55.4541 23.281C56.1197 23.7614 55.2061 24.3208 54.9306 24.6229C55.2613 24.5051 55.6075 24.1523 55.8921 23.9229C57.5917 22.5533 59.0558 20.9779 60.2947 19.1649C60.7099 18.557 61.1243 17.5508 61.4886 17.0591L61.6659 17.0397C60.832 20.8165 57.5108 24.4759 54.3992 26.493C49.219 29.8511 42.2676 31.2051 36.3164 29.5445C42.7232 30.2752 49.6881 26.6266 54.3207 22.2315C54.6083 21.9583 54.8659 21.6129 55.1438 21.3464Z" fill="#FC5E00"/>
<path d="M58.401 24.2544C57.6995 25.1864 57.2537 25.941 56.43 26.802C52.0011 31.417 45.9229 33.6516 39.6526 33.6798C35.2957 33.6996 29.0757 32.2432 28.8778 26.7146C28.7994 24.5266 30.0627 21.9372 31.5598 20.3892C30.7703 21.8113 30.5453 22.6844 30.5388 24.2912C30.7487 26.1408 31.4156 27.3926 32.8625 28.5374C35.9638 30.9913 40.6347 31.4525 44.3988 31.011C45.0603 30.9293 45.7169 30.8134 46.3669 30.664C50.9443 29.6462 54.9257 27.4233 58.401 24.2544Z" fill="#FCFCFC"/>
<path d="M11.797 12.862C14.583 12.9157 17.4489 12.8747 20.242 12.8808C21.0881 14.2593 22.0697 15.5672 22.9333 16.9443C21.2855 18.4286 19.3938 20.0992 17.8014 21.621C16.7004 20.1865 15.4838 18.2552 14.4242 16.7472C13.7233 15.7497 12.3725 13.8794 11.797 12.862Z" fill="#FB5201"/>
<path d="M46.2704 9.43941C45.9602 9.54392 45.1304 9.79156 44.8626 9.91634C45.352 9.84342 46.0757 9.70297 46.5412 9.672L46.6443 9.63784C48.3983 9.22201 50.1135 8.78482 51.9226 8.80153C52.1389 8.80349 52.4205 8.8027 52.6338 8.78831C52.4377 8.62135 51.5521 8.60661 51.2629 8.6018L51.2607 8.60176L51.8903 8.68711C51.3278 8.68258 50.6202 8.70113 50.0625 8.73064C49.3269 8.76958 49.4491 9.01814 48.6146 8.79872C49.1711 8.68209 50.401 8.5264 50.8629 8.22745C49.385 8.39612 47.6824 8.96353 46.2704 9.43941Z" fill="#FD7901"/>
</svg>
