<svg width="92" height="42" viewBox="0 0 92 42" fill="none" xmlns="http://www.w3.org/2000/svg">
<rect width="92" height="42" rx="6" fill="white"/>
<mask id="mask0_5_335" style="mask-type:luminance" maskUnits="userSpaceOnUse" x="9" y="8" width="74" height="26">
<path d="M83 8H9V33.678H83V8Z" fill="white"/>
</mask>
<g mask="url(#mask0_5_335)">
<path d="M67.0908 12.9284C68.8114 12.9232 70.5327 12.9286 72.2535 12.9445C72.7202 15.7397 73.4145 18.7054 73.8359 21.4723C74.6871 18.6093 75.5847 15.7608 76.5288 12.9281L82.8216 12.9407C82.3746 14.1652 81.9948 15.4678 81.5663 16.7046C79.9696 21.3098 78.579 26.0837 76.9602 30.6694L70.8832 30.6614C70.7122 29.6676 70.3015 28.1599 70.056 27.1565C69.6769 25.9521 69.0135 22.8938 68.7615 21.6188C67.9937 24.5087 67.0729 27.8234 66.1985 30.6695L60.2335 30.6649C60.0637 29.8783 59.7687 28.8651 59.5612 28.0712C59.2204 26.7288 58.8651 25.3903 58.495 24.056C60.9977 21.4439 63.1218 16.8072 62.6087 13.0934C63.3883 15.3716 64.0267 18.0968 64.6047 20.4538C65.4482 17.9503 66.2766 15.4418 67.0908 12.9284Z" fill="black"/>
<path d="M27.284 12.9303C28.2465 12.8481 30.1301 12.9299 31.1848 12.9119C31.9831 12.8982 34.3268 12.8657 35.0132 12.9645C35.2097 12.9432 35.432 12.9116 35.6274 12.9131C34.91 13.8406 33.659 15.1245 32.834 16.0131C31.0679 17.924 29.2719 19.8062 27.4467 21.6588C27.9313 22.3016 28.5497 23.1173 28.9926 23.7924C28.1392 26.2605 28.1079 28.3555 29.5428 30.657C28.0588 30.6717 26.5747 30.6754 25.0907 30.6681C24.1446 29.5393 22.7924 27.3836 21.8504 26.087C20.8976 27.1138 19.9997 28.192 19.0743 29.2425C18.6923 29.6763 18.2216 30.2676 17.8337 30.6604L14.5545 30.6609C12.851 30.7118 10.911 30.6803 9.19827 30.6633C10.2226 29.4502 11.2594 28.4198 12.3611 27.2791C14.2047 25.3656 16.0694 23.4733 17.9548 21.6025C19.5391 20.095 21.4212 18.4401 23.0606 16.9699C24.0084 16.1616 24.8656 15.0656 25.8181 14.2424C26.2993 13.8267 26.7454 13.2648 27.284 12.9303Z" fill="#FC5E00"/>
<path d="M35.0131 12.9645C35.2097 12.9432 35.432 12.9116 35.6274 12.9131C34.91 13.8406 33.659 15.1245 32.834 16.0131C31.0679 17.924 29.2719 19.8062 27.4467 21.6588C27.9313 22.3016 28.5497 23.1173 28.9926 23.7924C28.1392 26.2605 28.1079 28.3555 29.5428 30.657C28.0587 30.6717 26.5747 30.6754 25.0907 30.6681C24.1446 29.5394 22.7924 27.3836 21.8504 26.087C20.8976 27.1138 19.9997 28.192 19.0743 29.2425C18.6923 29.6763 18.2216 30.2676 17.8337 30.6604L14.5545 30.6609C14.9894 30.207 15.4786 29.7359 15.9391 29.309C18.7304 26.7206 21.4963 23.9984 24.3815 21.5271C27.3619 19.0072 30.3843 16.5391 33.4472 14.1239C33.9621 13.7188 34.4902 13.3783 35.0131 12.9645Z" fill="black"/>
<path d="M40.9537 12.3837C43.2972 11.1355 45.55 10.5478 48.0932 9.98398C52.6915 8.96458 59.327 10.2062 57.1694 16.6457C57.0466 17.0077 56.9275 17.3377 56.7551 17.6845C56.1813 19.0248 54.6774 20.9386 53.5015 21.7955C53.9491 20.4293 53.784 18.3554 53.1999 17.1347C49.7144 9.85141 37.0854 13.1741 34.63 19.743C33.6502 22.3645 33.7166 26.181 36.1976 27.879C36.6936 28.2186 37.1919 28.4139 37.7345 28.6271C36.8112 28.4785 35.96 28.328 35.0694 28.0521C31.9284 27.0786 30.7306 24.0728 31.865 21.0195C33.3102 17.1293 37.4133 14.1189 40.9537 12.3837Z" fill="black"/>
<path d="M40.9538 12.3837C43.2973 11.1355 45.55 10.5478 48.0932 9.98398C52.6915 8.96458 59.327 10.2062 57.1695 16.6457C57.0466 17.0077 56.9275 17.3377 56.7552 17.6845C56.7266 17.6343 56.6688 17.5268 56.6735 17.4688C57.2446 9.75152 48.6512 10.4955 43.7078 11.8226C42.641 12.1091 41.5134 12.4982 40.4264 12.8312C40.6426 12.6865 40.796 12.5966 40.9538 12.3837Z" fill="#2A2A2A"/>
<path d="M50.848 8.33513C53.7418 7.90897 57.2624 7.93274 59.7073 9.79942C60.9298 10.7332 61.7285 12.1318 61.9197 13.6753C62.0658 14.7759 61.9316 16.0075 61.5961 17.0644C60.7665 20.8056 57.4621 24.4306 54.3664 26.4287C49.2125 29.7551 42.2965 31.0962 36.3756 29.4512C42.7498 30.1751 49.6793 26.5609 54.2883 22.2073C54.5744 21.9366 54.8306 21.5945 55.1072 21.3305C57.1951 18.8292 60.416 14.4644 57.8543 11.0635C56.6581 9.47515 54.4797 9.07355 52.6099 8.8907C52.4144 8.7249 51.5293 8.71065 51.2438 8.70592L51.8702 8.79046C51.3106 8.78597 50.6066 8.80435 50.0518 8.83358C49.3199 8.87215 49.4414 9.11836 48.6112 8.90101C49.1649 8.78548 50.3885 8.63126 50.848 8.33513Z" fill="#FC5E00"/>
<path d="M55.1072 21.3305C54.8318 22.3496 53.706 22.0192 55.4159 23.2469C56.0781 23.7228 55.1692 24.2769 54.895 24.5762C55.2241 24.4594 55.5685 24.11 55.8516 23.8828C57.5426 22.526 58.9993 20.9654 60.2318 19.1695C60.6449 18.5674 61.0572 17.5706 61.4196 17.0836L61.5961 17.0644C60.7664 20.8056 57.4621 24.4306 54.3664 26.4286C49.2125 29.7551 42.2965 31.0963 36.3756 29.4513C42.7498 30.1752 49.6793 26.5609 54.2883 22.2073C54.5744 21.9366 54.8306 21.5945 55.1072 21.3305Z" fill="#FC5E00"/>
<path d="M58.3478 24.2111C57.6498 25.1343 57.2063 25.8818 56.3868 26.7347C51.9805 31.3061 45.9332 33.5198 39.6948 33.5477C35.3601 33.5672 29.1718 32.1246 28.9749 26.6481C28.8969 24.4807 30.1538 21.9157 31.6432 20.3823C30.8577 21.791 30.6338 22.6559 30.6274 24.2476C30.8362 26.0798 31.4997 27.3197 32.9393 28.4538C36.0248 30.8845 40.6719 31.3414 44.4169 30.9041C45.075 30.8231 45.7282 30.7083 46.3749 30.5603C50.9291 29.5521 54.8902 27.3501 58.3478 24.2111Z" fill="black"/>
<path d="M11.981 12.9261C14.7528 12.9793 17.6042 12.9386 20.383 12.9446C21.2248 14.3101 22.2014 15.6057 23.0606 16.9699C21.4212 18.4401 19.5391 20.095 17.9548 21.6025C16.8595 20.1816 15.6491 18.2684 14.5949 16.7746C13.8975 15.7865 12.5536 13.9339 11.981 12.9261Z" fill="#FB5201"/>
<path d="M46.279 9.53569C45.9703 9.63921 45.1447 9.88452 44.8783 10.0081C45.3652 9.93589 46.0852 9.79677 46.5483 9.76609L46.6509 9.73225C48.396 9.32034 50.1024 8.88726 51.9024 8.90382C52.1176 8.90576 52.3977 8.90497 52.6099 8.89072C52.4149 8.72533 51.5338 8.71074 51.246 8.70597L51.2438 8.70593L51.8702 8.79047C51.3106 8.78599 50.6066 8.80436 50.0518 8.83359C49.3199 8.87216 49.4414 9.11839 48.6112 8.90103C49.1649 8.7855 50.3885 8.63128 50.848 8.33514C49.3777 8.50222 47.6838 9.06429 46.279 9.53569Z" fill="#FD7901"/>
</g>
</svg>
