<svg width="739" height="252" viewBox="0 0 739 252" fill="none" xmlns="http://www.w3.org/2000/svg">
<g clip-path="url(#clip0_2128_348)">
<path d="M580.123 48.3663C597.306 48.3157 614.496 48.3681 631.68 48.5246C636.341 75.9559 643.275 105.061 647.483 132.215C655.983 104.118 664.947 76.163 674.375 48.3633L737.218 48.4871C732.754 60.5041 728.962 73.2878 724.682 85.4256C708.737 130.62 694.85 177.471 678.684 222.474L617.996 222.396C616.288 212.643 612.187 197.846 609.735 187.999C605.949 176.179 599.324 146.165 596.807 133.653C589.14 162.014 579.944 194.544 571.212 222.475L511.643 222.43C509.947 214.71 507.001 204.767 504.929 196.976C501.525 183.802 497.977 170.666 494.281 157.571C519.274 131.936 540.487 86.4321 535.363 49.9863C543.148 72.3438 549.523 99.0889 555.296 122.22C563.719 97.6504 571.992 73.0324 580.123 48.3663Z" fill="black"/>
<path d="M182.593 48.3853C192.205 47.5783 211.015 48.3812 221.548 48.2044C229.52 48.0705 252.926 47.7509 259.78 48.721C261.743 48.5115 263.963 48.2014 265.914 48.2163C258.75 57.3188 246.257 69.9191 238.018 78.6396C220.381 97.3927 202.445 115.864 184.218 134.045C189.057 140.354 195.233 148.359 199.656 154.984C191.133 179.206 190.821 199.766 205.15 222.352C190.33 222.497 175.51 222.533 160.69 222.461C151.241 211.383 137.738 190.228 128.33 177.503C118.815 187.58 109.848 198.161 100.607 208.471C96.7924 212.728 92.0913 218.531 88.2177 222.386L55.4701 222.391C38.4583 222.89 19.0841 222.581 1.97998 222.414C12.2099 210.509 22.5637 200.397 33.5656 189.202C51.9768 170.423 70.5987 151.853 89.4272 133.493C105.249 118.699 124.044 102.458 140.416 88.0289C149.881 80.0965 158.442 69.3406 167.954 61.2624C172.759 57.1819 177.214 51.6683 182.593 48.3853Z" fill="#FC5E00"/>
<path d="M259.78 48.7211C261.743 48.5116 263.963 48.2015 265.914 48.2163C258.75 57.3188 246.257 69.9192 238.018 78.6396C220.381 97.3927 202.445 115.864 184.218 134.045C189.057 140.354 195.233 148.359 199.656 154.984C191.133 179.206 190.821 199.766 205.15 222.352C190.33 222.497 175.51 222.533 160.69 222.461C151.241 211.384 137.738 190.228 128.33 177.503C118.815 187.58 109.848 198.161 100.607 208.471C96.7924 212.728 92.0914 218.531 88.2178 222.386L55.4702 222.391C59.8129 217.936 64.6984 213.313 69.2971 209.123C97.1728 183.721 124.794 157.006 153.607 132.753C183.371 108.023 213.554 83.8015 244.142 60.0995C249.284 56.1238 254.558 52.7819 259.78 48.7211Z" fill="black"/>
<path d="M319.105 43.0207C342.509 30.771 365.006 25.0038 390.404 19.4705C436.325 9.46634 502.59 21.6518 481.043 84.848C479.817 88.3999 478.627 91.6389 476.906 95.0426C471.175 108.196 456.157 126.978 444.414 135.387C448.884 121.979 447.235 101.626 441.402 89.6468C406.594 18.1695 280.474 50.7782 255.954 115.244C246.169 140.971 246.832 178.426 271.608 195.09C276.562 198.422 281.538 200.339 286.957 202.431C277.736 200.973 269.236 199.496 260.342 196.788C228.974 187.235 217.012 157.736 228.341 127.771C242.773 89.5933 283.749 60.0503 319.105 43.0207Z" fill="black"/>
<path d="M319.106 43.0207C342.51 30.771 365.006 25.0038 390.404 19.4705C436.325 9.46634 502.59 21.6518 481.044 84.848C479.817 88.3999 478.627 91.6389 476.907 95.0426C476.621 94.5498 476.044 93.4946 476.091 92.925C481.794 17.1892 395.976 24.4908 346.609 37.5148C335.955 40.3258 324.695 44.1444 313.839 47.4125C315.998 45.9924 317.53 45.1104 319.106 43.0207Z" fill="#2A2A2A"/>
<path d="M417.915 3.28883C446.813 -0.893416 481.972 -0.660099 506.388 17.6592C518.596 26.8236 526.572 40.5488 528.482 55.6964C529.941 66.4975 528.601 78.5842 525.25 88.9568C516.965 125.672 483.966 161.247 453.051 180.856C401.582 213.501 332.515 226.663 273.386 210.519C337.042 217.623 406.243 182.154 452.271 139.428C455.128 136.772 457.687 133.414 460.449 130.823C481.3 106.276 513.465 63.4401 487.883 30.0643C475.937 14.4768 454.182 10.5356 435.51 8.74118C433.557 7.11399 424.718 6.97412 421.867 6.9277L428.123 7.75737C422.534 7.71333 415.504 7.89367 409.963 8.18054C402.654 8.55906 403.868 10.9754 395.577 8.84236C401.106 7.70857 413.326 6.19504 417.915 3.28883Z" fill="#FC5E00"/>
<path d="M460.449 130.824C457.699 140.825 446.456 137.582 463.532 149.631C470.145 154.301 461.068 159.739 458.33 162.676C461.616 161.53 465.056 158.101 467.883 155.871C484.77 142.556 499.317 127.241 511.626 109.616C515.751 103.707 519.869 93.9249 523.488 89.1451L525.25 88.957C516.965 125.672 483.966 161.247 453.051 180.856C401.582 213.501 332.515 226.664 273.386 210.52C337.042 217.624 406.243 182.154 452.271 139.428C455.128 136.772 457.687 133.414 460.449 130.824Z" fill="#FC5E00"/>
<path d="M492.811 159.093C485.841 168.153 481.412 175.489 473.228 183.859C429.224 228.723 368.833 250.447 306.533 250.721C263.245 250.913 201.445 236.755 199.479 183.01C198.7 161.739 211.252 136.567 226.126 121.518C218.282 135.343 216.046 143.831 215.982 159.451C218.067 177.432 224.693 189.601 239.069 200.73C269.883 224.585 316.291 229.069 353.69 224.777C360.262 223.982 366.786 222.856 373.244 221.403C418.724 211.509 458.282 189.899 492.811 159.093Z" fill="black"/>
<path d="M29.77 48.3438C57.4505 48.8657 85.9256 48.4664 113.676 48.5259C122.083 61.9267 131.836 74.6413 140.416 88.029C124.044 102.458 105.249 118.699 89.4272 133.493C78.4884 119.548 66.4007 100.773 55.8732 86.1131C48.9091 76.4155 35.4882 58.2343 29.77 48.3438Z" fill="#FB5201"/>
<path d="M372.286 15.071C369.203 16.087 360.959 18.4944 358.298 19.7074C363.161 18.9985 370.351 17.6332 374.976 17.3321L376 17C393.428 12.9576 410.469 8.70748 428.444 8.86996C430.593 8.88901 433.391 8.88127 435.51 8.74141C433.562 7.11831 424.763 6.97507 421.889 6.92828L421.867 6.92793L428.123 7.7576C422.534 7.71356 415.504 7.89389 409.963 8.18077C402.654 8.55929 403.868 10.9757 395.577 8.84259C401.106 7.7088 413.326 6.19527 417.915 3.28906C403.231 4.92875 386.315 10.4448 372.286 15.071Z" fill="#FD7901"/>
</g>
<defs>
<clipPath id="clip0_2128_348">
<rect width="739" height="252" fill="white"/>
</clipPath>
</defs>
</svg>
