<svg width="92" height="92" viewBox="0 0 92 92" fill="none" xmlns="http://www.w3.org/2000/svg">
<rect width="92" height="92" rx="12" fill="black"/>
<path d="M68.9068 37.1641C70.7764 37.1586 72.6468 37.1643 74.5166 37.1814C75.0237 40.177 75.7782 43.3554 76.2361 46.3208C77.161 43.2525 78.1363 40.1996 79.1622 37.1638L86 37.1773C85.5143 38.4896 85.1017 39.8856 84.636 41.2112C82.901 46.1466 81.39 51.263 79.631 56.1775L73.0277 56.169C72.8418 55.1039 72.3956 53.488 72.1288 52.4127C71.7168 51.1219 70.996 47.8442 70.7221 46.4778C69.8879 49.575 68.8873 53.1274 67.9372 56.1776L61.4556 56.1727C61.271 55.3296 60.9505 54.2438 60.725 53.393C60.3546 51.9543 59.9686 50.5198 59.5664 49.0898C62.2859 46.2903 64.594 41.3211 64.0365 37.341C64.8836 39.7826 65.5772 42.7033 66.2054 45.2293C67.1219 42.5462 68.022 39.8578 68.9068 37.1641Z" fill="#FCFCFC"/>
<path d="M25.6522 37.1662C26.6981 37.078 28.7447 37.1657 29.8908 37.1464C30.7582 37.1318 33.305 37.0969 34.0508 37.2028C34.2644 37.1799 34.5059 37.1461 34.7182 37.1477C33.9387 38.1417 32.5794 39.5178 31.6829 40.4701C29.7638 42.518 27.8123 44.5352 25.829 46.5206C26.3555 47.2096 27.0275 48.0838 27.5088 48.8073C26.5814 51.4524 26.5475 53.6977 28.1066 56.1642C26.494 56.18 24.8815 56.1839 23.269 56.1761C22.2408 54.9663 20.7716 52.6561 19.7479 51.2664C18.7126 52.3669 17.7369 53.5224 16.7314 54.6483C16.3164 55.1132 15.8049 55.7469 15.3834 56.1679L11.8202 56.1684C9.96914 56.2229 7.86107 56.1892 6 56.171C7.1131 54.8709 8.23968 53.7666 9.43678 52.544C11.4401 50.4933 13.4663 48.4653 15.515 46.4603C17.2365 44.8448 19.2816 43.0712 21.063 41.4954C22.0929 40.6292 23.0244 39.4546 24.0593 38.5724C24.5822 38.1268 25.0669 37.5247 25.6522 37.1662Z" fill="#FC5E00"/>
<path d="M34.0508 37.2028C34.2644 37.18 34.5059 37.1461 34.7182 37.1477C33.9387 38.1418 32.5794 39.5178 31.6829 40.4701C29.7639 42.518 27.8123 44.5352 25.829 46.5206C26.3555 47.2096 27.0275 48.0838 27.5088 48.8073C26.5814 51.4524 26.5475 53.6977 28.1066 56.1642C26.4941 56.18 24.8815 56.184 23.269 56.1761C22.2408 54.9664 20.7716 52.6561 19.7479 51.2665C18.7126 52.3669 17.7369 53.5224 16.7314 54.6483C16.3164 55.1132 15.8049 55.7469 15.3834 56.1679L11.8202 56.1684C12.2927 55.6819 12.8243 55.1771 13.3247 54.7195C16.3578 51.9455 19.3632 49.0281 22.4983 46.3795C25.7369 43.6789 29.021 41.0338 32.3492 38.4454C32.9087 38.0113 33.4826 37.6463 34.0508 37.2028Z" fill="#FCFCFC"/>
<path d="M40.5058 36.5803C43.0524 35.2426 45.5002 34.6128 48.2638 34.0085C53.2603 32.916 60.4705 34.2468 58.126 41.1481C57.9926 41.536 57.8632 41.8897 57.6759 42.2614C57.0523 43.6978 55.4182 45.7489 54.1405 46.6672C54.6269 45.203 54.4474 42.9803 53.8128 41.6721C50.0254 33.8665 36.3025 37.4275 33.6345 44.4675C32.5698 47.277 32.6419 51.3673 35.3378 53.1871C35.8768 53.5509 36.4182 53.7603 37.0079 53.9887C36.0045 53.8295 35.0797 53.6682 34.1119 53.3725C30.6988 52.3292 29.3973 49.1078 30.63 45.8355C32.2003 41.6663 36.6588 38.4401 40.5058 36.5803Z" fill="#FCFCFC"/>
<path d="M40.5059 36.5803C43.0525 35.2426 45.5002 34.6128 48.2638 34.0085C53.2603 32.916 60.4705 34.2468 58.1261 41.1481C57.9926 41.536 57.8632 41.8897 57.676 42.2614C57.6449 42.2076 57.5821 42.0923 57.5872 42.0301C58.2077 33.7594 48.87 34.5568 43.4985 35.9791C42.3393 36.286 41.1141 36.7031 39.9328 37.0599C40.1678 36.9049 40.3345 36.8085 40.5059 36.5803Z" fill="#E2E2E2"/>
<path d="M51.2572 32.2414C54.4015 31.7847 58.2271 31.8102 60.8838 33.8107C62.2121 34.8115 63.08 36.3104 63.2878 37.9646C63.4465 39.1441 63.3007 40.464 62.9361 41.5968C62.0346 45.6063 58.4441 49.4912 55.0803 51.6326C49.48 55.1976 41.965 56.635 35.5312 54.872C42.4575 55.6478 49.9872 51.7744 54.9954 47.1085C55.3063 46.8184 55.5847 46.4517 55.8852 46.1688C58.154 43.4881 61.6538 38.8102 58.8703 35.1654C57.5705 33.4632 55.2033 33.0328 53.1717 32.8368C52.9592 32.6591 51.9974 32.6439 51.6872 32.6388L52.3679 32.7294C51.7598 32.7246 50.9948 32.7443 50.3919 32.7756C49.5967 32.817 49.7288 33.0808 48.8266 32.8479C49.4282 32.7241 50.7579 32.5588 51.2572 32.2414Z" fill="#FC5E00"/>
<path d="M55.8852 46.1689C55.586 47.261 54.3627 46.9069 56.2207 48.2227C56.9402 48.7327 55.9526 49.3265 55.6547 49.6473C56.0122 49.5221 56.3865 49.1477 56.6941 48.9041C58.5316 47.4501 60.1144 45.7776 61.4537 43.8529C61.9025 43.2076 62.3506 42.1393 62.7444 41.6173L62.9361 41.5968C62.0346 45.6063 58.4441 49.4912 55.0803 51.6326C49.48 55.1976 41.965 56.6351 35.5312 54.8721C42.4575 55.6479 49.9872 51.7744 54.9954 47.1085C55.3063 46.8184 55.5847 46.4517 55.8852 46.1689Z" fill="#FC5E00"/>
<path d="M59.4065 49.256C58.6481 50.2454 58.1662 51.0465 57.2757 51.9606C52.4877 56.8599 45.9167 59.2323 39.1379 59.2622C34.4278 59.2832 27.7035 57.7371 27.4895 51.8679C27.4048 49.545 28.7705 46.7961 30.389 45.1526C29.5355 46.6624 29.2922 47.5893 29.2852 49.2951C29.5121 51.2587 30.233 52.5876 31.7973 53.803C35.1501 56.4081 40.1997 56.8977 44.269 56.429C44.9841 56.3422 45.6939 56.2192 46.3966 56.0606C51.3452 54.9801 55.6495 52.6202 59.4065 49.256Z" fill="#FCFCFC"/>
<path d="M9.0238 37.1617C12.0357 37.2186 15.134 37.175 18.1535 37.1815C19.0682 38.645 20.1294 40.0335 21.063 41.4955C19.2816 43.0712 17.2365 44.8448 15.515 46.4604C14.3248 44.9375 13.0095 42.8872 11.864 41.2862C11.1063 40.2272 9.64599 38.2417 9.0238 37.1617Z" fill="#FB5201"/>
<path d="M46.2924 33.5281C45.9569 33.6391 45.0599 33.902 44.7704 34.0344C45.2995 33.957 46.0818 33.8079 46.5851 33.775L46.6965 33.7388C48.5928 33.2973 50.447 32.8332 52.4028 32.8509C52.6367 32.853 52.9411 32.8522 53.1717 32.8369C52.9597 32.6596 52.0023 32.644 51.6896 32.6389L51.6872 32.6388L52.3679 32.7294C51.7598 32.7246 50.9949 32.7443 50.3919 32.7757C49.5967 32.817 49.7288 33.0809 48.8266 32.8479C49.4282 32.7241 50.7579 32.5588 51.2572 32.2415C49.6594 32.4205 47.8188 33.0229 46.2924 33.5281Z" fill="#FD7901"/>
</svg>
